<svg version="1.1" id="Layer_1" xmlns="http://www.w3.org/2000/svg" xmlns:xlink="http://www.w3.org/1999/xlink" x="0px" y="0px"
	 width="100%" viewBox="0 0 577 241" enable-background="new 0 0 577 241" xml:space="preserve">
<path fill="#FDFEFD" opacity="1.000000" stroke="none" 
	d="
M432.000000,242.000000 
	C288.043854,242.000000 144.587708,242.000000 1.065779,242.000000 
	C1.065779,161.735123 1.065779,81.470161 1.065779,1.102603 
	C193.333313,1.102603 385.666656,1.102603 577.977661,1.102603 
	C577.977661,81.412209 577.977661,161.706116 577.977661,242.000000 
	C529.470215,242.000000 480.985107,242.000000 432.000000,242.000000 
M311.675262,136.916931 
	C341.900909,137.407120 359.725861,119.860870 358.040192,91.276955 
	C356.921082,72.299988 343.062469,59.134743 324.060852,59.218872 
	C319.840790,59.237556 315.623749,59.929752 310.779633,60.368511 
	C310.779633,49.510437 310.779633,38.951462 310.779633,28.564514 
	C304.609314,28.564514 299.059448,28.564514 293.255463,28.564514 
	C293.255463,62.955849 293.222626,96.910660 293.391785,130.864456 
	C293.397736,132.055237 295.231873,133.971222 296.524139,134.289413 
	C301.190094,135.438354 305.988800,136.048050 311.675262,136.916931 
M133.379410,111.902534 
	C136.528305,122.638924 143.003189,130.457794 153.682556,134.242905 
	C167.581558,139.169159 181.232300,137.212341 194.580215,131.943558 
	C195.670303,131.513275 196.815475,129.533737 196.814484,128.274963 
	C196.789032,96.158875 196.616989,64.042900 196.452530,31.926992 
	C196.446732,30.796387 196.256714,29.666729 196.148697,28.494839 
	C190.362946,28.494839 184.812363,28.494839 178.764832,28.494839 
	C178.764832,38.909382 178.764832,48.976025 178.764832,59.182529 
	C175.772842,59.182529 173.281555,59.115276 170.794815,59.193287 
	C152.648865,59.762531 137.427109,70.416542 133.661758,86.957130 
	C131.911743,94.644699 133.236099,103.032120 133.379410,111.902534 
M90.411179,109.242340 
	C91.576637,109.242310 92.780426,109.433571 93.900902,109.209045 
	C98.690697,108.249275 100.659218,110.527557 101.775169,114.964691 
	C103.233345,120.762619 105.306778,126.412148 107.270164,132.071884 
	C107.719727,133.367783 108.748650,135.419510 109.599274,135.464828 
	C115.291679,135.768051 121.008003,135.622406 127.141396,135.622406 
	C116.151207,102.798485 105.510399,70.940628 94.734192,39.128624 
	C94.321976,37.911728 92.638031,36.338066 91.488655,36.288952 
	C85.050301,36.013855 78.594101,36.156521 73.095695,36.156521 
	C62.254944,69.586807 51.638432,102.325607 40.810822,135.715378 
	C45.857151,135.715378 50.002155,135.535736 54.122925,135.774414 
	C57.206730,135.953018 58.461975,134.755981 59.287788,131.824371 
	C61.399662,124.327324 63.914062,116.943657 66.353729,109.242348 
	C74.145569,109.242348 81.788887,109.242348 90.411179,109.242340 
M477.113525,120.363785 
	C470.195129,111.834846 463.276733,103.305916 456.175812,94.551926 
	C465.953857,83.387779 475.537567,72.445511 485.804993,60.722599 
	C483.156769,60.554337 481.693939,60.593430 480.279633,60.350304 
	C470.400482,58.651989 463.388458,62.118851 457.816406,70.696350 
	C452.922882,78.229378 446.511078,84.776131 439.873169,92.849052 
	C439.873169,70.472977 439.873169,49.577274 439.873169,28.552792 
	C433.732300,28.552792 428.034363,28.552792 422.431580,28.552792 
	C422.431580,64.397141 422.431580,99.814110 422.431580,135.430176 
	C428.318970,135.430176 433.904449,135.430176 440.123169,135.430176 
	C440.123169,124.184258 440.123169,113.206627 440.123169,101.297203 
	C448.726746,112.306168 456.596405,122.429825 464.551239,132.486084 
	C465.533417,133.727692 466.931488,135.459930 468.201813,135.516937 
	C474.937042,135.819275 481.693024,135.658997 489.653412,135.658997 
	C485.086700,130.087250 481.327179,125.500320 477.113525,120.363785 
M216.619690,121.799149 
	C224.386810,133.981232 235.898422,138.230484 249.670868,136.635208 
	C263.838593,134.994141 273.481934,126.860352 277.011658,113.220573 
	C279.000702,105.534348 279.567444,97.048355 278.711975,89.145958 
	C276.824646,71.712151 264.189056,60.105888 247.912170,59.204403 
	C230.238953,58.225586 216.326279,68.465134 212.006302,85.911331 
	C208.977585,98.142746 210.084427,109.991760 216.619690,121.799149 
M507.600922,133.021698 
	C519.620056,138.478012 531.845215,138.049072 544.120300,134.115372 
	C545.505066,133.671616 547.512329,132.329544 547.619690,131.244614 
	C548.031494,127.082535 547.786377,122.855453 547.786377,118.456665 
	C522.605774,125.473465 507.942078,119.384720 508.208679,102.121796 
	C518.655701,102.121796 529.116089,102.144386 539.576355,102.116364 
	C554.275452,102.076981 554.341858,101.986702 553.109802,87.017319 
	C551.521423,67.718117 536.252136,56.122982 517.280701,59.809372 
	C503.499481,62.487232 493.951874,72.984795 490.839783,88.881088 
	C487.089111,108.039146 493.017517,124.164993 507.600922,133.021698 
M371.835022,73.662582 
	C371.835022,83.607063 371.835022,93.551537 371.835022,104.237762 
	C377.007935,102.437561 380.673187,101.162041 385.026489,99.647072 
	C385.026489,111.858170 385.026489,123.287163 385.026489,134.716156 
	C385.254608,134.727600 385.482697,134.739059 385.710815,134.750504 
	C391.373352,118.721466 397.035919,102.692429 402.970886,85.892311 
	C398.742554,87.404106 395.532074,88.551987 391.547943,89.976486 
	C393.365601,79.186966 395.050232,69.186951 396.868317,58.394943 
	C389.302185,61.198044 382.855927,63.861797 376.225067,65.935120 
	C372.500580,67.099678 371.020782,68.977959 371.835022,73.662582 
M396.135712,22.384832 
	C389.795349,16.131470 382.330933,14.548555 374.110535,17.674557 
	C366.761505,20.469191 362.705963,26.143976 362.052643,33.959106 
	C361.341125,42.469738 366.400665,50.176781 374.302246,53.165176 
	C382.610016,56.307209 392.028168,53.748821 397.262543,46.928123 
	C402.673462,39.877396 402.439117,31.080610 396.135712,22.384832 
M44.213146,213.502609 
	C44.336040,215.665283 44.548813,217.827438 44.561241,219.990753 
	C44.581001,223.430878 46.279209,223.681183 49.189690,222.588928 
	C48.489380,211.682373 47.800365,200.951797 47.124115,190.419952 
	C43.064030,189.036163 41.127693,190.138260 39.951138,193.814011 
	C37.677425,200.917465 34.960178,207.878952 32.102222,215.798676 
	C29.379463,207.862106 26.845032,201.014542 24.712458,194.044052 
	C23.540981,190.214981 21.585211,188.888016 17.446796,190.465302 
	C16.711126,201.108200 15.968784,211.847626 15.224877,222.609680 
	C18.570511,223.950745 19.683844,222.859589 19.810997,219.710449 
	C20.085279,212.917435 20.591299,206.133789 21.002499,199.346298 
	C24.216085,205.727554 26.273977,212.182922 28.583519,218.546951 
	C29.193237,220.227051 30.579506,221.625320 31.609184,223.153015 
	C32.818851,221.611115 34.470032,220.243500 35.159691,218.496323 
	C37.772335,211.877502 40.073410,205.135666 42.491024,198.439850 
	C42.802277,198.509521 43.113533,198.579193 43.424786,198.648849 
	C43.671181,203.282593 43.917572,207.916321 44.213146,213.502609 
M248.641876,223.150192 
	C251.125809,222.564941 253.609726,221.979691 256.085632,221.396332 
	C256.554871,227.665344 254.037140,230.445984 247.996048,230.063644 
	C246.530258,229.970856 245.102081,229.275635 243.636749,229.187485 
	C242.879257,229.141937 241.608673,229.661545 241.422379,230.213501 
	C241.215500,230.826538 241.751633,232.105255 242.356247,232.513275 
	C248.665970,236.771240 259.768890,232.477142 260.484039,224.925156 
	C261.273743,216.585556 260.664368,208.113480 260.664368,198.864059 
	C258.793915,199.869293 257.394928,201.251266 256.100311,201.159576 
	C254.431763,201.041397 252.913681,199.357040 251.207092,199.061432 
	C249.491898,198.764328 247.506332,199.011185 245.846771,199.602280 
	C241.078278,201.300674 238.432098,206.498047 238.850464,212.725815 
	C239.232101,218.406433 241.877609,221.471252 248.641876,223.150192 
M138.081528,218.314789 
	C138.081528,219.793137 138.081528,221.271500 138.081528,223.691269 
	C140.153748,222.741577 141.655380,222.053375 143.262222,221.316956 
	C148.603104,224.927460 153.429352,224.838837 157.384674,220.878143 
	C161.628387,216.628677 162.217514,207.837097 158.594223,202.827957 
	C155.205063,198.142517 150.380493,197.683807 143.121384,201.356750 
	C141.502472,188.245941 141.502472,188.245941 138.100327,188.613464 
	C138.100327,198.150726 138.100327,207.750000 138.081528,218.314789 
M404.731934,222.506409 
	C411.376221,219.161270 411.441162,207.559235 408.039520,202.942871 
	C404.402374,198.006912 398.982788,197.569183 392.790405,201.568207 
	C391.396210,200.767059 390.307770,199.980438 389.092102,199.578064 
	C388.846863,199.496887 387.686340,200.867645 387.679871,201.575653 
	C387.585297,211.975449 387.614777,222.376389 387.614777,232.927521 
	C389.328766,232.927521 391.102325,233.068161 391.130219,232.906860 
	C391.751801,229.313416 392.180878,225.686676 392.540100,222.893433 
	C396.526245,222.893433 400.292877,222.893433 404.731934,222.506409 
M182.120575,195.586945 
	C182.121796,188.115784 182.121796,188.115784 177.964325,188.674057 
	C177.964325,200.048126 177.964325,211.436554 177.964325,222.768845 
	C180.932526,223.746948 182.243347,223.095749 182.186813,219.954193 
	C182.143402,217.543213 182.693329,215.121552 183.018799,212.371613 
	C189.056610,215.188675 188.835861,224.300949 197.606613,222.918213 
	C194.007599,218.074173 190.787949,213.740753 187.468903,209.273544 
	C190.490555,206.028824 193.209778,203.108856 196.412445,199.669754 
	C188.179230,198.373581 187.449097,206.549759 182.120621,208.735123 
	C182.120621,204.444641 182.120621,200.495850 182.120575,195.586945 
M97.488113,223.184555 
	C97.742104,222.355988 98.479660,221.193130 98.174225,220.751282 
	C95.536156,216.935089 92.710243,213.248734 89.752831,209.271545 
	C92.631477,206.164368 95.368378,203.210205 98.538971,199.787903 
	C90.536400,198.225998 89.935349,206.418243 84.352852,208.529480 
	C84.352852,202.527405 84.417793,196.949173 84.328606,191.373398 
	C84.274734,188.005310 84.167229,188.007034 80.153381,188.852356 
	C80.153381,200.128372 80.153381,211.418427 80.153381,222.898926 
	C81.563240,222.898926 82.786446,222.898926 83.788033,222.898926 
	C84.357010,219.285141 84.878738,215.971436 85.400467,212.657730 
	C85.912979,212.656982 86.425484,212.656235 86.937988,212.655487 
	C88.204575,214.368881 89.324692,216.220093 90.774658,217.760941 
	C92.602386,219.703186 94.699417,221.391998 97.488113,223.184555 
M215.630493,223.205261 
	C216.404083,222.094315 217.749863,221.030060 217.845047,219.863754 
	C218.142273,216.221375 217.839981,212.534531 218.010284,208.876099 
	C218.180634,205.215958 220.191544,202.888016 223.932465,202.745346 
	C227.747940,202.599838 229.191833,205.233597 229.383728,208.556671 
	C229.604324,212.377029 229.631866,216.217163 229.544754,220.044174 
	C229.461456,223.703262 231.121536,223.810837 233.950958,222.453812 
	C233.950958,217.415421 234.148438,212.420883 233.898972,207.448776 
	C233.613022,201.749542 229.632797,198.138321 224.430405,198.910233 
	C220.968750,199.423874 217.737076,202.179306 214.034836,199.699081 
	C213.975281,199.659195 213.586227,200.111145 213.376160,200.309753 
	C213.376160,206.830643 213.312759,213.321823 213.436508,219.809464 
	C213.457962,220.934265 214.271240,222.043991 215.630493,223.205261 
M283.043304,199.156479 
	C281.672638,200.119659 280.301941,201.082840 278.931274,202.046021 
	C279.218323,202.454529 279.505402,202.863037 279.792450,203.271545 
	C289.071503,201.583130 290.410065,202.122971 290.612274,207.282486 
	C287.225922,208.313461 283.750916,208.942276 280.684967,210.419830 
	C277.297363,212.052353 276.262451,215.388397 277.237915,218.946472 
	C278.193970,222.433762 280.958008,224.153229 284.438873,223.884842 
	C288.179413,223.596420 291.874054,222.712601 295.749420,222.061569 
	C295.749420,218.396851 295.775696,214.246155 295.743988,210.095917 
	C295.676086,201.213425 292.764893,198.504517 283.043304,199.156479 
M501.142242,199.628113 
	C499.910706,200.380951 498.679169,201.133804 497.447632,201.886658 
	C497.512909,201.512177 497.578156,201.137680 497.643402,200.763184 
	C496.227905,200.320053 494.812439,199.876907 493.250000,199.387772 
	C493.250000,207.774445 493.250000,215.235062 493.250000,223.171478 
	C494.843781,223.039612 496.158356,222.930832 497.694916,222.803696 
	C497.694916,217.963623 497.624512,213.643753 497.715820,209.327332 
	C497.797729,205.455460 499.697693,202.847366 503.721497,202.772079 
	C507.808350,202.695602 509.024689,205.598236 509.094299,209.141724 
	C509.162964,212.638092 509.284332,216.144684 509.099579,219.631775 
	C508.898804,223.420746 510.620270,223.712799 513.806458,222.643326 
	C513.806458,217.810379 513.966980,213.160309 513.769897,208.525421 
	C513.451965,201.049011 509.394531,198.020981 501.142242,199.628113 
M63.473949,198.822845 
	C62.647415,198.898361 61.712460,198.752579 61.016075,199.093765 
	C59.376438,199.897049 57.850624,200.932663 56.278763,201.874283 
	C57.923710,202.057526 59.614613,202.577255 61.204880,202.360092 
	C65.743927,201.740250 67.508629,202.944244 68.056534,207.319641 
	C64.720558,208.297028 61.236828,208.879105 58.168129,210.335602 
	C54.856190,211.907593 53.499111,215.083847 54.492371,218.735794 
	C55.503380,222.453018 58.340904,224.185211 62.037861,223.881332 
	C65.618858,223.586975 69.154877,222.745407 72.959457,222.102127 
	C72.959457,217.843414 73.053696,213.038498 72.935783,208.238785 
	C72.785873,202.136490 70.573242,199.805939 63.473949,198.822845 
M105.372414,221.232330 
	C109.836288,221.805435 114.292511,222.471664 118.773216,222.840042 
	C119.368835,222.888992 120.088821,221.425171 120.751213,220.661942 
	C119.846214,220.313904 118.954422,219.726120 118.033058,219.675415 
	C116.731651,219.603790 115.408913,220.057159 114.094376,220.062561 
	C108.607864,220.085129 106.161629,217.695358 106.214958,212.056946 
	C111.449066,212.056946 116.694534,212.056946 122.187302,212.056946 
	C122.639069,207.292465 122.175095,202.766571 118.136681,200.771561 
	C115.241035,199.341095 110.879089,198.958420 107.874596,200.047836 
	C100.433472,202.745956 99.089722,213.646179 105.372414,221.232330 
M466.676025,213.043411 
	C467.393372,222.308090 475.452820,225.083618 484.195312,222.860886 
	C485.072815,222.637787 485.591339,221.002655 486.903076,219.126648 
	C475.172577,221.065948 471.424622,219.167877 471.714722,212.166168 
	C474.339722,212.166168 476.980865,212.166153 479.622009,212.166153 
	C482.232483,212.166153 484.842987,212.166168 487.373413,212.166168 
	C488.594849,202.413177 482.180176,196.465683 474.175751,199.474350 
	C468.358673,201.660858 466.648987,206.528931 466.676025,213.043411 
M543.363220,202.924927 
	C539.959045,208.301086 539.205566,213.938492 542.995605,219.263962 
	C546.601685,224.330826 552.135803,224.072983 557.515930,222.999847 
	C558.609497,222.781723 559.466248,221.376862 560.432129,220.519089 
	C548.738220,220.766876 545.809753,219.311447 545.508301,212.010330 
	C550.917786,212.010330 556.313843,212.010330 561.851318,212.010330 
	C562.007568,206.704300 561.208191,202.270279 556.597717,199.957047 
	C551.954041,197.627182 547.553467,198.641464 543.363220,202.924927 
M339.484985,216.815750 
	C343.010925,222.853302 350.675995,225.600082 356.599762,222.742523 
	C357.420929,222.346375 357.691193,220.808151 358.514252,219.226471 
	C347.140869,221.041321 343.663696,219.315231 343.488953,211.950989 
	C348.913483,211.950989 354.331604,211.950989 359.707611,211.950989 
	C360.003662,203.995956 356.976105,199.529449 351.251007,198.903717 
	C345.040131,198.224854 339.964844,202.113678 338.987122,208.688614 
	C338.629242,211.095306 339.110992,213.626877 339.484985,216.815750 
M427.359894,220.070053 
	C420.795013,219.649399 418.966858,218.055405 418.777710,212.000793 
	C424.170990,212.000793 429.559998,212.000793 434.893890,212.000793 
	C435.219360,203.678894 432.060150,199.246750 425.988617,198.871597 
	C419.260712,198.455902 414.360138,203.343857 413.918152,210.686539 
	C413.331024,220.440491 420.468536,225.663376 431.660522,222.820312 
	C432.392609,222.634323 432.837311,221.317078 433.415710,220.526077 
	C432.648224,220.190475 431.896271,219.630905 431.109314,219.576492 
	C430.145325,219.509842 429.152130,219.866028 427.359894,220.070053 
M313.502808,202.660126 
	C317.588165,203.135681 318.509857,206.081665 318.600159,209.461823 
	C318.718933,213.906158 318.629333,218.356079 318.629333,222.658539 
	C321.815918,223.738388 323.234894,223.151016 323.090576,219.971695 
	C322.932343,216.485306 323.024902,212.986038 323.058197,209.492844 
	C323.096619,205.460953 322.354614,201.725647 318.364899,199.766342 
	C314.323334,197.781555 310.652618,198.930801 308.026917,201.289871 
	C306.119049,200.543259 304.617065,199.955490 302.967468,199.309967 
	C302.967468,207.792831 302.967468,215.366837 302.967468,222.940842 
	C303.445770,223.199127 303.924103,223.457397 304.402405,223.715683 
	C305.276947,222.551315 306.780670,221.450455 306.905762,220.210449 
	C307.254761,216.751846 306.987335,213.234818 307.047821,209.742310 
	C307.112823,205.989044 308.673737,203.349167 313.502808,202.660126 
M381.480835,220.112625 
	C375.351776,211.102417 375.353180,211.103378 381.462402,202.189743 
	C381.902222,201.547989 382.299835,200.877335 382.918823,199.902328 
	C375.681549,197.880249 376.427277,205.945175 372.653931,207.415527 
	C369.121155,205.035095 369.308319,198.133636 362.178101,199.820175 
	C364.942261,203.917725 367.411102,207.577438 369.850891,211.194122 
	C367.105652,215.149048 364.565948,218.807846 361.840759,222.733887 
	C369.298859,224.829651 368.577484,216.569794 372.800812,214.788269 
	C374.430054,217.221558 375.765411,219.784302 377.670502,221.811691 
	C378.568787,222.767639 380.560486,222.696182 382.056732,223.090256 
	C382.005920,222.303818 381.955078,221.517365 381.480835,220.112625 
M533.033752,219.881775 
	C528.562744,220.218765 525.136597,218.789902 523.773071,214.167099 
	C521.743347,207.285858 526.241821,202.404694 533.873718,202.930557 
	C534.997803,203.008011 536.188354,202.121002 537.348145,201.680252 
	C536.307434,200.888718 535.368164,199.641113 534.208801,199.383438 
	C528.757019,198.171768 523.344971,200.411057 520.685913,204.686768 
	C518.007019,208.994415 518.217529,215.444885 521.163208,219.309784 
	C523.950623,222.967026 529.591248,224.623978 534.780518,223.067032 
	C535.766785,222.771103 536.477661,221.557297 537.315674,220.767029 
	C536.138062,220.430634 534.960510,220.094254 533.033752,219.881775 
M444.927521,214.611679 
	C444.986786,209.478134 444.229004,203.914307 451.581909,202.808792 
	C451.991089,202.747284 452.662109,200.854767 452.352203,200.400223 
	C451.857117,199.674133 450.436096,198.868942 449.768768,199.108078 
	C447.986084,199.746887 446.396088,200.923492 445.257263,201.581482 
	C443.922394,200.775391 442.845001,200.124771 441.767609,199.474152 
	C441.297699,200.526291 440.438538,201.572586 440.422638,202.631546 
	C440.335571,208.422318 440.545227,214.217331 440.471497,220.008575 
	C440.426147,223.572235 442.023926,223.775055 444.927460,222.463165 
	C444.927460,220.152252 444.927460,217.849686 444.927521,214.611679 
M170.692459,200.338333 
	C167.631012,198.298218 166.174301,199.122040 166.195389,202.795624 
	C166.227783,208.440399 166.348923,214.090530 166.153763,219.728745 
	C166.019043,223.620895 167.732620,223.856323 170.836609,222.636276 
	C170.836609,215.432205 170.836609,208.307495 170.692459,200.338333 
M461.070007,222.261703 
	C461.117065,215.791412 461.094482,209.319580 461.239532,202.851486 
	C461.315979,199.442673 459.946320,198.775742 456.859863,200.169022 
	C456.859863,206.861832 456.961334,213.495193 456.812744,220.122955 
	C456.748260,223.000458 457.970581,223.611725 461.070007,222.261703 
M201.811829,203.572968 
	C201.812073,209.026886 201.905075,214.482956 201.779251,219.933975 
	C201.698288,223.441620 203.234161,223.715500 205.762177,222.645996 
	C205.762177,214.839661 205.762177,207.302261 205.762177,199.764847 
	C205.303070,199.514938 204.843979,199.265015 204.384872,199.015106 
	C203.527542,200.203293 202.670212,201.391495 201.811829,203.572968 
M461.230164,191.092209 
	C459.628967,191.269562 458.027771,191.446930 456.426575,191.624298 
	C457.094818,192.875229 457.763062,194.126160 458.431305,195.377060 
	C459.484772,194.159058 460.538239,192.941055 461.230164,191.092209 
z"/>
<path fill="#060606" opacity="1.000000" stroke="none" 
	d="
M311.206329,136.889130 
	C305.988800,136.048050 301.190094,135.438354 296.524139,134.289413 
	C295.231873,133.971222 293.397736,132.055237 293.391785,130.864456 
	C293.222626,96.910660 293.255463,62.955849 293.255463,28.564514 
	C299.059448,28.564514 304.609314,28.564514 310.779633,28.564514 
	C310.779633,38.951462 310.779633,49.510437 310.779633,60.368511 
	C315.623749,59.929752 319.840790,59.237556 324.060852,59.218872 
	C343.062469,59.134743 356.921082,72.299988 358.040192,91.276955 
	C359.725861,119.860870 341.900909,137.407120 311.206329,136.889130 
M336.446381,82.214546 
	C331.128723,74.603737 323.613525,73.520096 315.164001,74.891235 
	C312.215698,75.369675 310.945953,76.479118 311.043823,79.751343 
	C311.297729,88.241264 311.129150,96.743828 311.129211,105.241341 
	C311.129211,110.506149 311.129181,115.770966 311.129181,120.851097 
	C324.026367,124.268120 335.396606,118.124550 338.778625,106.136734 
	C341.014618,98.211044 340.858124,90.323273 336.446381,82.214546 
z"/>
<path fill="#040404" opacity="1.000000" stroke="none" 
	d="
M133.273102,111.502411 
	C133.236099,103.032120 131.911743,94.644699 133.661758,86.957130 
	C137.427109,70.416542 152.648865,59.762531 170.794815,59.193287 
	C173.281555,59.115276 175.772842,59.182529 178.764832,59.182529 
	C178.764832,48.976025 178.764832,38.909382 178.764832,28.494839 
	C184.812363,28.494839 190.362946,28.494839 196.148697,28.494839 
	C196.256714,29.666729 196.446732,30.796387 196.452530,31.926992 
	C196.616989,64.042900 196.789032,96.158875 196.814484,128.274963 
	C196.815475,129.533737 195.670303,131.513275 194.580215,131.943558 
	C181.232300,137.212341 167.581558,139.169159 153.682556,134.242905 
	C143.003189,130.457794 136.528305,122.638924 133.273102,111.502411 
M158.399200,78.812744 
	C153.693314,82.513794 151.350525,87.537766 150.350250,93.290199 
	C147.264755,111.034485 158.243088,123.564865 174.957977,121.217651 
	C176.369812,121.019386 178.720688,119.502541 178.736359,118.566475 
	C178.978134,104.125511 178.905090,89.679283 178.905090,75.388474 
	C171.543579,73.186554 165.996857,74.075256 158.399200,78.812744 
z"/>
<path fill="#060606" opacity="1.000000" stroke="none" 
	d="
M89.921692,109.242340 
	C81.788887,109.242348 74.145569,109.242348 66.353729,109.242348 
	C63.914062,116.943657 61.399662,124.327324 59.287788,131.824371 
	C58.461975,134.755981 57.206730,135.953018 54.122925,135.774414 
	C50.002155,135.535736 45.857151,135.715378 40.810822,135.715378 
	C51.638432,102.325607 62.254944,69.586807 73.095695,36.156521 
	C78.594101,36.156521 85.050301,36.013855 91.488655,36.288952 
	C92.638031,36.338066 94.321976,37.911728 94.734192,39.128624 
	C105.510399,70.940628 116.151207,102.798485 127.141396,135.622406 
	C121.008003,135.622406 115.291679,135.768051 109.599274,135.464828 
	C108.748650,135.419510 107.719727,133.367783 107.270164,132.071884 
	C105.306778,126.412148 103.233345,120.762619 101.775169,114.964691 
	C100.659218,110.527557 98.690697,108.249275 93.900902,109.209045 
	C92.780426,109.433571 91.576637,109.242310 89.921692,109.242340 
M87.499458,67.000641 
	C86.135498,62.345474 84.771538,57.690308 83.060730,51.851353 
	C78.812180,66.228691 74.906418,79.446030 70.945107,92.851364 
	C79.105515,92.851364 86.955956,92.851364 95.275429,92.851364 
	C92.689751,84.215881 90.226425,75.989021 87.499458,67.000641 
z"/>
<path fill="#070707" opacity="1.000000" stroke="none" 
	d="
M477.340576,120.638588 
	C481.327179,125.500320 485.086700,130.087250 489.653412,135.658997 
	C481.693024,135.658997 474.937042,135.819275 468.201813,135.516937 
	C466.931488,135.459930 465.533417,133.727692 464.551239,132.486084 
	C456.596405,122.429825 448.726746,112.306168 440.123169,101.297203 
	C440.123169,113.206627 440.123169,124.184258 440.123169,135.430176 
	C433.904449,135.430176 428.318970,135.430176 422.431580,135.430176 
	C422.431580,99.814110 422.431580,64.397141 422.431580,28.552792 
	C428.034363,28.552792 433.732300,28.552792 439.873169,28.552792 
	C439.873169,49.577274 439.873169,70.472977 439.873169,92.849052 
	C446.511078,84.776131 452.922882,78.229378 457.816406,70.696350 
	C463.388458,62.118851 470.400482,58.651989 480.279633,60.350304 
	C481.693939,60.593430 483.156769,60.554337 485.804993,60.722599 
	C475.537567,72.445511 465.953857,83.387779 456.175812,94.551926 
	C463.276733,103.305916 470.195129,111.834846 477.340576,120.638588 
z"/>
<path fill="#060606" opacity="1.000000" stroke="none" 
	d="
M216.413406,121.493614 
	C210.084427,109.991760 208.977585,98.142746 212.006302,85.911331 
	C216.326279,68.465134 230.238953,58.225586 247.912170,59.204403 
	C264.189056,60.105888 276.824646,71.712151 278.711975,89.145958 
	C279.567444,97.048355 279.000702,105.534348 277.011658,113.220573 
	C273.481934,126.860352 263.838593,134.994141 249.670868,136.635208 
	C235.898422,138.230484 224.386810,133.981232 216.413406,121.493614 
M238.504532,75.699898 
	C236.064102,78.317169 232.741959,80.536476 231.347488,83.625870 
	C227.055359,93.135033 227.224258,103.030479 231.416092,112.593590 
	C234.110016,118.739403 239.041794,122.203636 245.968109,121.921761 
	C252.766327,121.645103 256.955292,117.596848 259.245605,111.555054 
	C262.418335,103.185509 262.385468,94.584991 259.771271,86.126183 
	C256.726074,76.272774 249.172470,72.472931 238.504532,75.699898 
z"/>
<path fill="#060606" opacity="1.000000" stroke="none" 
	d="
M507.270813,132.849274 
	C493.017517,124.164993 487.089111,108.039146 490.839783,88.881088 
	C493.951874,72.984795 503.499481,62.487232 517.280701,59.809372 
	C536.252136,56.122982 551.521423,67.718117 553.109802,87.017319 
	C554.341858,101.986702 554.275452,102.076981 539.576355,102.116364 
	C529.116089,102.144386 518.655701,102.121796 508.208679,102.121796 
	C507.942078,119.384720 522.605774,125.473465 547.786377,118.456665 
	C547.786377,122.855453 548.031494,127.082535 547.619690,131.244614 
	C547.512329,132.329544 545.505066,133.671616 544.120300,134.115372 
	C531.845215,138.049072 519.620056,138.478012 507.270813,132.849274 
M533.436157,78.179443 
	C529.386902,73.398804 524.150208,72.422203 518.524414,74.210953 
	C511.628906,76.403435 509.264801,82.173149 508.032745,88.945633 
	C517.632690,88.945633 526.999329,88.945633 537.584534,88.945633 
	C536.180115,85.089455 535.031006,81.934227 533.436157,78.179443 
z"/>
<path fill="#079449" opacity="1.000000" stroke="none" 
	d="
M371.829834,73.190308 
	C371.020782,68.977959 372.500580,67.099678 376.225067,65.935120 
	C382.855927,63.861797 389.302185,61.198044 396.868317,58.394943 
	C395.050232,69.186951 393.365601,79.186966 391.547943,89.976486 
	C395.532074,88.551987 398.742554,87.404106 402.970886,85.892311 
	C397.035919,102.692429 391.373352,118.721466 385.710815,134.750504 
	C385.482697,134.739059 385.254608,134.727600 385.026489,134.716156 
	C385.026489,123.287163 385.026489,111.858170 385.026489,99.647072 
	C380.673187,101.162041 377.007935,102.437561 371.835022,104.237762 
	C371.835022,93.551537 371.835022,83.607063 371.829834,73.190308 
z"/>
<path fill="#0A0A0A" opacity="1.000000" stroke="none" 
	d="
M396.379333,22.652706 
	C402.439117,31.080610 402.673462,39.877396 397.262543,46.928123 
	C392.028168,53.748821 382.610016,56.307209 374.302246,53.165176 
	C366.400665,50.176781 361.341125,42.469738 362.052643,33.959106 
	C362.705963,26.143976 366.761505,20.469191 374.110535,17.674557 
	C382.330933,14.548555 389.795349,16.131470 396.379333,22.652706 
M373.629272,36.087769 
	C372.499023,38.880386 371.368774,41.673004 370.149475,44.685581 
	C375.162720,44.685581 379.380829,44.685581 383.598938,44.685581 
	C383.830688,44.309147 384.062469,43.932713 384.294220,43.556278 
	C382.563171,42.078606 380.832153,40.600929 378.826660,38.888988 
	C379.505157,37.327633 380.382019,35.309784 381.634308,32.428009 
	C383.197357,36.016903 384.610321,38.642735 385.494049,41.436005 
	C386.804596,45.578060 389.444550,45.450516 393.153931,44.352085 
	C390.711243,38.572464 388.597565,33.007580 385.963928,27.700718 
	C385.222839,26.207382 383.000916,24.717749 381.375397,24.621191 
	C380.026367,24.541056 378.099854,26.230944 377.240784,27.633759 
	C375.788300,30.005478 374.976929,32.769817 373.629272,36.087769 
z"/>
<path fill="#199A53" opacity="1.000000" stroke="none" 
	d="
M44.188553,213.026337 
	C43.917572,207.916321 43.671181,203.282593 43.424786,198.648849 
	C43.113533,198.579193 42.802277,198.509521 42.491024,198.439850 
	C40.073410,205.135666 37.772335,211.877502 35.159691,218.496323 
	C34.470032,220.243500 32.818851,221.611115 31.609186,223.153015 
	C30.579506,221.625320 29.193237,220.227051 28.583519,218.546951 
	C26.273977,212.182922 24.216085,205.727554 21.002499,199.346298 
	C20.591299,206.133789 20.085279,212.917435 19.810997,219.710449 
	C19.683844,222.859589 18.570511,223.950745 15.224877,222.609680 
	C15.968784,211.847626 16.711126,201.108200 17.446796,190.465302 
	C21.585211,188.888016 23.540981,190.214981 24.712458,194.044052 
	C26.845032,201.014542 29.379463,207.862106 32.102222,215.798676 
	C34.960178,207.878952 37.677425,200.917465 39.951138,193.814011 
	C41.127693,190.138260 43.064030,189.036163 47.124115,190.419952 
	C47.800365,200.951797 48.489380,211.682373 49.189690,222.588928 
	C46.279209,223.681183 44.581001,223.430878 44.561241,219.990753 
	C44.548813,217.827438 44.336040,215.665283 44.188553,213.026337 
z"/>
<path fill="#179951" opacity="1.000000" stroke="none" 
	d="
M248.228699,223.130981 
	C241.877609,221.471252 239.232101,218.406433 238.850464,212.725815 
	C238.432098,206.498047 241.078278,201.300674 245.846771,199.602280 
	C247.506332,199.011185 249.491898,198.764328 251.207092,199.061432 
	C252.913681,199.357040 254.431763,201.041397 256.100311,201.159576 
	C257.394928,201.251266 258.793915,199.869293 260.664368,198.864059 
	C260.664368,208.113480 261.273743,216.585556 260.484039,224.925156 
	C259.768890,232.477142 248.665970,236.771240 242.356247,232.513275 
	C241.751633,232.105255 241.215500,230.826538 241.422379,230.213501 
	C241.608673,229.661545 242.879257,229.141937 243.636749,229.187485 
	C245.102081,229.275635 246.530258,229.970856 247.996048,230.063644 
	C254.037140,230.445984 256.554871,227.665344 256.085632,221.396332 
	C253.609726,221.979691 251.125809,222.564941 248.228699,223.130981 
M255.545746,216.819321 
	C255.863174,213.740295 256.693970,210.606400 256.372101,207.595703 
	C255.939499,203.548737 251.458405,200.862274 248.301636,202.949173 
	C246.015121,204.460800 243.718109,207.668610 243.570709,210.242828 
	C243.409622,213.056244 245.030945,216.871658 247.194077,218.598694 
	C248.612839,219.731430 252.370712,217.934372 255.545746,216.819321 
z"/>
<path fill="#1C9C56" opacity="1.000000" stroke="none" 
	d="
M138.090927,217.832031 
	C138.100327,207.750000 138.100327,198.150726 138.100327,188.613464 
	C141.502472,188.245941 141.502472,188.245941 143.121384,201.356750 
	C150.380493,197.683807 155.205063,198.142517 158.594223,202.827957 
	C162.217514,207.837097 161.628387,216.628677 157.384674,220.878143 
	C153.429352,224.838837 148.603104,224.927460 143.262222,221.316956 
	C141.655380,222.053375 140.153748,222.741577 138.081528,223.691269 
	C138.081528,221.271500 138.081528,219.793137 138.090927,217.832031 
M156.251389,209.780350 
	C156.097946,208.967758 156.070953,208.104675 155.769989,207.350998 
	C154.157364,203.312851 150.671783,201.585052 147.095230,202.979019 
	C143.134552,204.522720 141.201859,210.901917 143.143784,216.021408 
	C144.418488,219.381927 148.520386,221.385086 151.700317,219.660156 
	C153.412292,218.731491 154.764496,216.786652 155.757416,215.008942 
	C156.424515,213.814606 156.177719,212.109833 156.251389,209.780350 
z"/>
<path fill="#169951" opacity="1.000000" stroke="none" 
	d="
M404.395691,222.699921 
	C400.292877,222.893433 396.526245,222.893433 392.540100,222.893433 
	C392.180878,225.686676 391.751801,229.313416 391.130219,232.906860 
	C391.102325,233.068161 389.328766,232.927521 387.614777,232.927521 
	C387.614777,222.376389 387.585297,211.975449 387.679871,201.575653 
	C387.686340,200.867645 388.846863,199.496887 389.092102,199.578064 
	C390.307770,199.980438 391.396210,200.767059 392.790405,201.568207 
	C398.982788,197.569183 404.402374,198.006912 408.039520,202.942871 
	C411.441162,207.559235 411.376221,219.161270 404.395691,222.699921 
M396.956787,220.041260 
	C400.977112,220.791092 403.874847,219.377274 405.150604,215.427338 
	C406.508606,211.222687 406.334473,207.111237 402.844818,203.923691 
	C399.955719,201.284729 395.622833,202.220566 393.419006,205.690887 
	C390.700195,209.972137 391.995422,216.583450 396.956787,220.041260 
z"/>
<path fill="#169951" opacity="1.000000" stroke="none" 
	d="
M182.120605,196.067017 
	C182.120621,200.495850 182.120621,204.444641 182.120621,208.735123 
	C187.449097,206.549759 188.179230,198.373581 196.412445,199.669754 
	C193.209778,203.108856 190.490555,206.028824 187.468903,209.273544 
	C190.787949,213.740753 194.007599,218.074173 197.606613,222.918213 
	C188.835861,224.300949 189.056610,215.188675 183.018799,212.371613 
	C182.693329,215.121552 182.143402,217.543213 182.186813,219.954193 
	C182.243347,223.095749 180.932526,223.746948 177.964325,222.768845 
	C177.964325,211.436554 177.964325,200.048126 177.964325,188.674057 
	C182.121796,188.115784 182.121796,188.115784 182.120605,196.067017 
z"/>
<path fill="#11974D" opacity="1.000000" stroke="none" 
	d="
M97.084183,223.187347 
	C94.699417,221.391998 92.602386,219.703186 90.774658,217.760941 
	C89.324692,216.220093 88.204575,214.368881 86.937988,212.655487 
	C86.425484,212.656235 85.912979,212.656982 85.400467,212.657730 
	C84.878738,215.971436 84.357010,219.285141 83.788033,222.898926 
	C82.786446,222.898926 81.563240,222.898926 80.153381,222.898926 
	C80.153381,211.418427 80.153381,200.128372 80.153381,188.852356 
	C84.167229,188.007034 84.274734,188.005310 84.328606,191.373398 
	C84.417793,196.949173 84.352852,202.527405 84.352852,208.529480 
	C89.935349,206.418243 90.536400,198.225998 98.538971,199.787903 
	C95.368378,203.210205 92.631477,206.164368 89.752831,209.271545 
	C92.710243,213.248734 95.536156,216.935089 98.174225,220.751282 
	C98.479660,221.193130 97.742104,222.355988 97.084183,223.187347 
z"/>
<path fill="#1C9C56" opacity="1.000000" stroke="none" 
	d="
M215.174622,223.182968 
	C214.271240,222.043991 213.457962,220.934265 213.436508,219.809464 
	C213.312759,213.321823 213.376160,206.830643 213.376160,200.309753 
	C213.586227,200.111145 213.975281,199.659195 214.034836,199.699081 
	C217.737076,202.179306 220.968750,199.423874 224.430405,198.910233 
	C229.632797,198.138321 233.613022,201.749542 233.898972,207.448776 
	C234.148438,212.420883 233.950958,217.415421 233.950958,222.453812 
	C231.121536,223.810837 229.461456,223.703262 229.544754,220.044174 
	C229.631866,216.217163 229.604324,212.377029 229.383728,208.556671 
	C229.191833,205.233597 227.747940,202.599838 223.932465,202.745346 
	C220.191544,202.888016 218.180634,205.215958 218.010284,208.876099 
	C217.839981,212.534531 218.142273,216.221375 217.845047,219.863754 
	C217.749863,221.030060 216.404083,222.094315 215.174622,223.182968 
z"/>
<path fill="#1B9B55" opacity="1.000000" stroke="none" 
	d="
M283.463257,199.081818 
	C292.764893,198.504517 295.676086,201.213425 295.743988,210.095917 
	C295.775696,214.246155 295.749420,218.396851 295.749420,222.061569 
	C291.874054,222.712601 288.179413,223.596420 284.438873,223.884842 
	C280.958008,224.153229 278.193970,222.433762 277.237915,218.946472 
	C276.262451,215.388397 277.297363,212.052353 280.684967,210.419830 
	C283.750916,208.942276 287.225922,208.313461 290.612274,207.282486 
	C290.410065,202.122971 289.071503,201.583130 279.792450,203.271545 
	C279.505402,202.863037 279.218323,202.454529 278.931274,202.046021 
	C280.301941,201.082840 281.672638,200.119659 283.463257,199.081818 
M291.259979,215.263199 
	C291.146027,213.914062 291.032074,212.564941 290.873199,210.684265 
	C288.127045,211.378235 285.604065,211.334763 284.193115,212.565842 
	C282.809601,213.772964 282.557434,216.276779 281.808746,218.211517 
	C283.789856,218.816345 285.852173,220.049637 287.723938,219.807892 
	C288.998932,219.643219 290.007446,217.415161 291.259979,215.263199 
z"/>
<path fill="#209E59" opacity="1.000000" stroke="none" 
	d="
M501.476013,199.480560 
	C509.394531,198.020981 513.451965,201.049011 513.769897,208.525421 
	C513.966980,213.160309 513.806458,217.810379 513.806458,222.643326 
	C510.620270,223.712799 508.898804,223.420746 509.099579,219.631775 
	C509.284332,216.144684 509.162964,212.638092 509.094299,209.141724 
	C509.024689,205.598236 507.808350,202.695602 503.721497,202.772079 
	C499.697693,202.847366 497.797729,205.455460 497.715820,209.327332 
	C497.624512,213.643753 497.694916,217.963623 497.694916,222.803696 
	C496.158356,222.930832 494.843781,223.039612 493.250000,223.171478 
	C493.250000,215.235062 493.250000,207.774445 493.250000,199.387772 
	C494.812439,199.876907 496.227905,200.320053 497.643402,200.763184 
	C497.578156,201.137680 497.512909,201.512177 497.447632,201.886658 
	C498.679169,201.133804 499.910706,200.380951 501.476013,199.480560 
z"/>
<path fill="#189A53" opacity="1.000000" stroke="none" 
	d="
M63.900734,198.823288 
	C70.573242,199.805939 72.785873,202.136490 72.935783,208.238785 
	C73.053696,213.038498 72.959457,217.843414 72.959457,222.102127 
	C69.154877,222.745407 65.618858,223.586975 62.037861,223.881332 
	C58.340904,224.185211 55.503380,222.453018 54.492371,218.735794 
	C53.499111,215.083847 54.856190,211.907593 58.168129,210.335602 
	C61.236828,208.879105 64.720558,208.297028 68.056534,207.319641 
	C67.508629,202.944244 65.743927,201.740250 61.204880,202.360092 
	C59.614613,202.577255 57.923710,202.057526 56.278763,201.874283 
	C57.850624,200.932663 59.376438,199.897049 61.016075,199.093765 
	C61.712460,198.752579 62.647415,198.898361 63.900734,198.823288 
M65.684425,211.228745 
	C64.406059,211.545898 62.707127,211.463699 61.942612,212.268829 
	C60.618645,213.663086 59.303505,215.550613 59.125648,217.344376 
	C59.036308,218.245438 61.917637,220.522324 62.655605,220.220581 
	C64.833893,219.329941 67.095329,217.783386 68.370750,215.860916 
	C69.155899,214.677444 70.289886,211.432037 65.684425,211.228745 
z"/>
<path fill="#189951" opacity="1.000000" stroke="none" 
	d="
M105.075790,220.999023 
	C99.089722,213.646179 100.433472,202.745956 107.874596,200.047836 
	C110.879089,198.958420 115.241035,199.341095 118.136681,200.771561 
	C122.175095,202.766571 122.639069,207.292465 122.187302,212.056946 
	C116.694534,212.056946 111.449066,212.056946 106.214958,212.056946 
	C106.161629,217.695358 108.607864,220.085129 114.094376,220.062561 
	C115.408913,220.057159 116.731651,219.603790 118.033058,219.675415 
	C118.954422,219.726120 119.846214,220.313904 120.751213,220.661926 
	C120.088821,221.425171 119.368835,222.888992 118.773216,222.840042 
	C114.292511,222.471664 109.836288,221.805435 105.075790,220.999023 
M111.537933,209.042953 
	C113.614815,209.042953 115.691689,209.042953 118.027168,209.042953 
	C117.700974,204.576172 116.059677,201.942505 111.955612,202.164230 
	C108.138557,202.370468 106.164696,204.752365 106.013649,209.043228 
	C107.695335,209.043228 109.160202,209.043228 111.537933,209.042953 
z"/>
<path fill="#1A9A53" opacity="1.000000" stroke="none" 
	d="
M466.657410,212.657166 
	C466.648987,206.528931 468.358673,201.660858 474.175751,199.474350 
	C482.180176,196.465683 488.594849,202.413177 487.373413,212.166168 
	C484.842987,212.166168 482.232483,212.166153 479.622009,212.166153 
	C476.980865,212.166153 474.339722,212.166168 471.714722,212.166168 
	C471.424622,219.167877 475.172577,221.065948 486.903076,219.126648 
	C485.591339,221.002655 485.072815,222.637787 484.195312,222.860886 
	C475.452820,225.083618 467.393372,222.308090 466.657410,212.657166 
M473.208435,209.035431 
	C476.468506,209.035431 479.728577,209.035431 484.799500,209.035431 
	C482.613495,206.095001 481.620117,203.470306 479.850586,202.748703 
	C478.153198,202.056458 475.288574,202.808640 473.632385,203.942184 
	C472.566193,204.671875 472.755707,207.236252 473.208435,209.035431 
z"/>
<path fill="#199A52" opacity="1.000000" stroke="none" 
	d="
M543.605042,202.636307 
	C547.553467,198.641464 551.954041,197.627182 556.597717,199.957047 
	C561.208191,202.270279 562.007568,206.704300 561.851318,212.010330 
	C556.313843,212.010330 550.917786,212.010330 545.508301,212.010330 
	C545.809753,219.311447 548.738220,220.766876 560.432129,220.519089 
	C559.466248,221.376862 558.609497,222.781723 557.515930,222.999847 
	C552.135803,224.072983 546.601685,224.330826 542.995605,219.263962 
	C539.205566,213.938492 539.959045,208.301086 543.605042,202.636307 
M556.130310,208.992279 
	C556.075073,207.326645 556.672363,204.902588 555.817139,204.166840 
	C554.410034,202.956207 551.662903,201.878723 550.204346,202.485260 
	C548.003052,203.400650 546.424316,205.813049 544.580933,207.589188 
	C544.883240,208.073105 545.185547,208.557022 545.487793,209.040939 
	C548.732727,209.040939 551.977600,209.040939 556.130310,208.992279 
z"/>
<path fill="#179952" opacity="1.000000" stroke="none" 
	d="
M339.347351,216.458618 
	C339.110992,213.626877 338.629242,211.095306 338.987122,208.688614 
	C339.964844,202.113678 345.040131,198.224854 351.251007,198.903717 
	C356.976105,199.529449 360.003662,203.995956 359.707611,211.950989 
	C354.331604,211.950989 348.913483,211.950989 343.488953,211.950989 
	C343.663696,219.315231 347.140869,221.041321 358.514252,219.226471 
	C357.691193,220.808151 357.420929,222.346375 356.599762,222.742523 
	C350.675995,225.600082 343.010925,222.853302 339.347351,216.458618 
M343.235962,207.953629 
	C347.240723,208.446320 351.245483,208.939011 355.250244,209.431702 
	C355.588745,208.782440 355.927246,208.133179 356.265747,207.483917 
	C354.480347,205.714951 352.982880,203.076538 350.846039,202.368835 
	C347.090698,201.125137 344.710724,203.748199 343.235962,207.953629 
z"/>
<path fill="#169951" opacity="1.000000" stroke="none" 
	d="
M427.765717,220.054733 
	C429.152130,219.866028 430.145325,219.509842 431.109314,219.576492 
	C431.896271,219.630905 432.648224,220.190475 433.415710,220.526062 
	C432.837311,221.317078 432.392609,222.634323 431.660522,222.820312 
	C420.468536,225.663376 413.331024,220.440491 413.918152,210.686539 
	C414.360138,203.343857 419.260712,198.455902 425.988617,198.871597 
	C432.060150,199.246750 435.219360,203.678894 434.893890,212.000793 
	C429.559998,212.000793 424.170990,212.000793 418.777710,212.000793 
	C418.966858,218.055405 420.795013,219.649399 427.765717,220.054733 
M425.438599,209.056580 
	C427.178741,209.056580 428.918915,209.056580 430.978516,209.056580 
	C430.436401,204.864288 429.040070,202.189423 425.157471,202.129898 
	C420.971863,202.065720 419.083862,204.706223 418.359863,209.056580 
	C420.635681,209.056580 422.595093,209.056580 425.438599,209.056580 
z"/>
<path fill="#14984F" opacity="1.000000" stroke="none" 
	d="
M313.079468,202.662567 
	C308.673737,203.349167 307.112823,205.989044 307.047821,209.742310 
	C306.987335,213.234818 307.254761,216.751846 306.905762,220.210449 
	C306.780670,221.450455 305.276947,222.551315 304.402405,223.715683 
	C303.924103,223.457397 303.445770,223.199127 302.967468,222.940842 
	C302.967468,215.366837 302.967468,207.792831 302.967468,199.309967 
	C304.617065,199.955490 306.119049,200.543259 308.026917,201.289871 
	C310.652618,198.930801 314.323334,197.781555 318.364899,199.766342 
	C322.354614,201.725647 323.096619,205.460953 323.058197,209.492844 
	C323.024902,212.986038 322.932343,216.485306 323.090576,219.971695 
	C323.234894,223.151016 321.815918,223.738388 318.629333,222.658539 
	C318.629333,218.356079 318.718933,213.906158 318.600159,209.461823 
	C318.509857,206.081665 317.588165,203.135681 313.079468,202.662567 
z"/>
<path fill="#179A53" opacity="1.000000" stroke="none" 
	d="
M381.692535,220.421783 
	C381.955078,221.517365 382.005920,222.303818 382.056732,223.090256 
	C380.560486,222.696182 378.568787,222.767639 377.670502,221.811691 
	C375.765411,219.784302 374.430054,217.221558 372.800812,214.788269 
	C368.577484,216.569794 369.298859,224.829651 361.840759,222.733887 
	C364.565948,218.807846 367.105652,215.149048 369.850891,211.194122 
	C367.411102,207.577438 364.942261,203.917725 362.178101,199.820175 
	C369.308319,198.133636 369.121155,205.035095 372.653931,207.415527 
	C376.427277,205.945175 375.681549,197.880249 382.918823,199.902328 
	C382.299835,200.877335 381.902222,201.547989 381.462402,202.189743 
	C375.353180,211.103378 375.351776,211.102417 381.692535,220.421783 
z"/>
<path fill="#199A53" opacity="1.000000" stroke="none" 
	d="
M533.408325,219.819824 
	C534.960510,220.094254 536.138062,220.430634 537.315674,220.767029 
	C536.477661,221.557297 535.766785,222.771103 534.780518,223.067032 
	C529.591248,224.623978 523.950623,222.967026 521.163208,219.309784 
	C518.217529,215.444885 518.007019,208.994415 520.685913,204.686768 
	C523.344971,200.411057 528.757019,198.171768 534.208801,199.383438 
	C535.368164,199.641113 536.307434,200.888718 537.348145,201.680237 
	C536.188354,202.121002 534.997803,203.008011 533.873718,202.930557 
	C526.241821,202.404694 521.743347,207.285858 523.773071,214.167099 
	C525.136597,218.789902 528.562744,220.218765 533.408325,219.819824 
z"/>
<path fill="#169951" opacity="1.000000" stroke="none" 
	d="
M444.927490,215.079407 
	C444.927460,217.849686 444.927460,220.152252 444.927460,222.463165 
	C442.023926,223.775055 440.426147,223.572235 440.471497,220.008575 
	C440.545227,214.217331 440.335571,208.422318 440.422638,202.631546 
	C440.438538,201.572586 441.297699,200.526291 441.767609,199.474152 
	C442.845001,200.124771 443.922394,200.775391 445.257263,201.581482 
	C446.396088,200.923492 447.986084,199.746887 449.768768,199.108078 
	C450.436096,198.868942 451.857117,199.674133 452.352203,200.400223 
	C452.662109,200.854767 451.991089,202.747284 451.581909,202.808792 
	C444.229004,203.914307 444.986786,209.478134 444.927490,215.079407 
z"/>
<path fill="#2AA25F" opacity="1.000000" stroke="none" 
	d="
M170.764526,200.760559 
	C170.836609,208.307495 170.836609,215.432205 170.836609,222.636276 
	C167.732620,223.856323 166.019043,223.620895 166.153763,219.728745 
	C166.348923,214.090530 166.227783,208.440399 166.195389,202.795624 
	C166.174301,199.122040 167.631012,198.298218 170.764526,200.760559 
z"/>
<path fill="#10964C" opacity="1.000000" stroke="none" 
	d="
M460.749023,222.618134 
	C457.970581,223.611725 456.748260,223.000458 456.812744,220.122955 
	C456.961334,213.495193 456.859863,206.861832 456.859863,200.169022 
	C459.946320,198.775742 461.315979,199.442673 461.239532,202.851486 
	C461.094482,209.319580 461.117065,215.791412 460.749023,222.618134 
z"/>
<path fill="#079347" opacity="1.000000" stroke="none" 
	d="
M201.812347,203.076324 
	C202.670212,201.391495 203.527542,200.203293 204.384872,199.015106 
	C204.843979,199.265015 205.303070,199.514938 205.762177,199.764847 
	C205.762177,207.302261 205.762177,214.839661 205.762177,222.645996 
	C203.234161,223.715500 201.698288,223.441620 201.779251,219.933975 
	C201.905075,214.482956 201.812073,209.026886 201.812347,203.076324 
z"/>
<path fill="#2AA25F" opacity="1.000000" stroke="none" 
	d="
M461.410950,191.407623 
	C460.538239,192.941055 459.484772,194.159058 458.431305,195.377075 
	C457.763062,194.126160 457.094818,192.875229 456.426575,191.624298 
	C458.027771,191.446930 459.628967,191.269562 461.410950,191.407623 
z"/>
<path fill="#F9F9F9" opacity="1.000000" stroke="none" 
	d="
M336.659882,82.521545 
	C340.858124,90.323273 341.014618,98.211044 338.778625,106.136734 
	C335.396606,118.124550 324.026367,124.268120 311.129181,120.851097 
	C311.129181,115.770966 311.129211,110.506149 311.129211,105.241341 
	C311.129150,96.743828 311.297729,88.241264 311.043823,79.751343 
	C310.945953,76.479118 312.215698,75.369675 315.164001,74.891235 
	C323.613525,73.520096 331.128723,74.603737 336.659882,82.521545 
z"/>
<path fill="#F9F9F9" opacity="1.000000" stroke="none" 
	d="
M158.681946,78.584038 
	C165.996857,74.075256 171.543579,73.186554 178.905090,75.388474 
	C178.905090,89.679283 178.978134,104.125511 178.736359,118.566475 
	C178.720688,119.502541 176.369812,121.019386 174.957977,121.217651 
	C158.243088,123.564865 147.264755,111.034485 150.350250,93.290199 
	C151.350525,87.537766 153.693314,82.513794 158.681946,78.584038 
z"/>
<path fill="#F7F7F7" opacity="1.000000" stroke="none" 
	d="
M87.631271,67.381393 
	C90.226425,75.989021 92.689751,84.215881 95.275429,92.851364 
	C86.955956,92.851364 79.105515,92.851364 70.945107,92.851364 
	C74.906418,79.446030 78.812180,66.228691 83.060730,51.851353 
	C84.771538,57.690308 86.135498,62.345474 87.631271,67.381393 
z"/>
<path fill="#FBFBFB" opacity="1.000000" stroke="none" 
	d="
M238.837189,75.503952 
	C249.172470,72.472931 256.726074,76.272774 259.771271,86.126183 
	C262.385468,94.584991 262.418335,103.185509 259.245605,111.555054 
	C256.955292,117.596848 252.766327,121.645103 245.968109,121.921761 
	C239.041794,122.203636 234.110016,118.739403 231.416092,112.593590 
	C227.224258,103.030479 227.055359,93.135033 231.347488,83.625870 
	C232.741959,80.536476 236.064102,78.317169 238.837189,75.503952 
z"/>
<path fill="#F7F7F7" opacity="1.000000" stroke="none" 
	d="
M533.659058,78.479225 
	C535.031006,81.934227 536.180115,85.089455 537.584534,88.945633 
	C526.999329,88.945633 517.632690,88.945633 508.032745,88.945633 
	C509.264801,82.173149 511.628906,76.403435 518.524414,74.210953 
	C524.150208,72.422203 529.386902,73.398804 533.659058,78.479225 
z"/>
<path fill="#EAEAEA" opacity="1.000000" stroke="none" 
	d="
M373.762634,35.728424 
	C374.976929,32.769817 375.788300,30.005478 377.240784,27.633759 
	C378.099854,26.230944 380.026367,24.541056 381.375397,24.621191 
	C383.000916,24.717749 385.222839,26.207382 385.963928,27.700718 
	C388.597565,33.007580 390.711243,38.572464 393.153931,44.352085 
	C389.444550,45.450516 386.804596,45.578060 385.494049,41.436005 
	C384.610321,38.642735 383.197357,36.016903 381.634308,32.428009 
	C380.382019,35.309784 379.505157,37.327633 378.826660,38.888988 
	C380.832153,40.600929 382.563171,42.078606 384.294220,43.556278 
	C384.062469,43.932713 383.830688,44.309147 383.598938,44.685581 
	C379.380829,44.685581 375.162720,44.685581 370.149475,44.685581 
	C371.368774,41.673004 372.499023,38.880386 373.762634,35.728424 
z"/>
<path fill="#EFF8F3" opacity="1.000000" stroke="none" 
	d="
M255.313385,217.134384 
	C252.370712,217.934372 248.612839,219.731430 247.194077,218.598694 
	C245.030945,216.871658 243.409622,213.056244 243.570709,210.242828 
	C243.718109,207.668610 246.015121,204.460800 248.301636,202.949173 
	C251.458405,200.862274 255.939499,203.548737 256.372101,207.595703 
	C256.693970,210.606400 255.863174,213.740295 255.313385,217.134384 
z"/>
<path fill="#F7FCFA" opacity="1.000000" stroke="none" 
	d="
M156.295593,210.206879 
	C156.177719,212.109833 156.424515,213.814606 155.757416,215.008942 
	C154.764496,216.786652 153.412292,218.731491 151.700317,219.660156 
	C148.520386,221.385086 144.418488,219.381927 143.143784,216.021408 
	C141.201859,210.901917 143.134552,204.522720 147.095230,202.979019 
	C150.671783,201.585052 154.157364,203.312851 155.769989,207.350998 
	C156.070953,208.104675 156.097946,208.967758 156.295593,210.206879 
z"/>
<path fill="#F3FAF6" opacity="1.000000" stroke="none" 
	d="
M396.569702,219.919373 
	C391.995422,216.583450 390.700195,209.972137 393.419006,205.690887 
	C395.622833,202.220566 399.955719,201.284729 402.844818,203.923691 
	C406.334473,207.111237 406.508606,211.222687 405.150604,215.427338 
	C403.874847,219.377274 400.977112,220.791092 396.569702,219.919373 
z"/>
<path fill="#ECF7F1" opacity="1.000000" stroke="none" 
	d="
M291.197540,215.686478 
	C290.007446,217.415161 288.998932,219.643219 287.723938,219.807892 
	C285.852173,220.049637 283.789856,218.816345 281.808716,218.211517 
	C282.557434,216.276779 282.809601,213.772964 284.193115,212.565842 
	C285.604065,211.334763 288.127045,211.378235 290.873199,210.684265 
	C291.032074,212.564941 291.146027,213.914062 291.197540,215.686478 
z"/>
<path fill="#ECF7F1" opacity="1.000000" stroke="none" 
	d="
M66.080109,211.206207 
	C70.289886,211.432037 69.155899,214.677444 68.370750,215.860916 
	C67.095329,217.783386 64.833893,219.329941 62.655605,220.220581 
	C61.917637,220.522324 59.036308,218.245438 59.125648,217.344376 
	C59.303505,215.550613 60.618645,213.663086 61.942612,212.268829 
	C62.707127,211.463699 64.406059,211.545898 66.080109,211.206207 
z"/>
<path fill="#ECF7F1" opacity="1.000000" stroke="none" 
	d="
M111.081497,209.043091 
	C109.160202,209.043228 107.695335,209.043228 106.013649,209.043228 
	C106.164696,204.752365 108.138557,202.370468 111.955612,202.164230 
	C116.059677,201.942505 117.700974,204.576172 118.027168,209.042953 
	C115.691689,209.042953 113.614815,209.042953 111.081497,209.043091 
z"/>
<path fill="#ECF7F1" opacity="1.000000" stroke="none" 
	d="
M472.795410,209.006866 
	C472.755707,207.236252 472.566193,204.671875 473.632385,203.942184 
	C475.288574,202.808640 478.153198,202.056458 479.850586,202.748703 
	C481.620117,203.470306 482.613495,206.095001 484.799500,209.035431 
	C479.728577,209.035431 476.468506,209.035431 472.795410,209.006866 
z"/>
<path fill="#E9F5EF" opacity="1.000000" stroke="none" 
	d="
M555.676392,209.016602 
	C551.977600,209.040939 548.732727,209.040939 545.487793,209.040939 
	C545.185547,208.557022 544.883240,208.073105 544.580933,207.589188 
	C546.424316,205.813049 548.003052,203.400650 550.204346,202.485260 
	C551.662903,201.878723 554.410034,202.956207 555.817139,204.166840 
	C556.672363,204.902588 556.075073,207.326645 555.676392,209.016602 
z"/>
<path fill="#E9F5EF" opacity="1.000000" stroke="none" 
	d="
M343.286835,207.555878 
	C344.710724,203.748199 347.090698,201.125137 350.846039,202.368835 
	C352.982880,203.076538 354.480347,205.714951 356.265747,207.483917 
	C355.927246,208.133179 355.588745,208.782440 355.250244,209.431702 
	C351.245483,208.939011 347.240723,208.446320 343.286835,207.555878 
z"/>
<path fill="#E9F5EF" opacity="1.000000" stroke="none" 
	d="
M424.996521,209.056580 
	C422.595093,209.056580 420.635681,209.056580 418.359863,209.056580 
	C419.083862,204.706223 420.971863,202.065720 425.157471,202.129898 
	C429.040070,202.189423 430.436401,204.864288 430.978516,209.056580 
	C428.918915,209.056580 427.178741,209.056580 424.996521,209.056580 
z"/>
</svg>