<svg version="1.1" id="Layer_1" xmlns="http://www.w3.org/2000/svg" xmlns:xlink="http://www.w3.org/1999/xlink" x="0px" y="0px"
	 width="100%" viewBox="0 0 577 241" enable-background="new 0 0 577 241" xml:space="preserve">
<path fill="#FDFEFE" opacity="1.000000" stroke="none" 
	d="
M1.000000,139.000000 
	C1.000000,101.311905 1.000000,63.623806 1.330328,25.764103 
	C2.027703,25.265821 2.626844,24.998569 2.727919,24.603796 
	C5.389051,14.210014 11.055300,6.455937 21.544170,2.802760 
	C21.866327,2.690555 21.855555,1.622451 22.000000,1.000000 
	C199.688110,1.000000 377.376221,1.000000 555.241821,1.305230 
	C556.756531,2.442129 558.057495,3.339989 559.436707,4.094963 
	C570.006653,9.880831 575.720642,19.107468 575.862915,30.818485 
	C576.263489,63.794823 576.069824,96.779503 575.914673,129.759979 
	C575.896057,133.719635 574.882202,137.722855 573.968750,141.621338 
	C570.848389,154.938065 557.850708,163.041000 545.294800,163.037247 
	C374.725342,162.986176 204.155884,162.973312 33.586475,163.056351 
	C19.184635,163.063370 5.983705,154.358475 2.890659,139.964569 
	C2.796800,139.527786 1.653842,139.316452 1.000000,139.000000 
M342.278931,128.832825 
	C356.161652,117.798454 361.684479,99.738365 356.414825,82.607491 
	C352.046326,68.406174 340.499207,59.488503 325.665771,59.241764 
	C320.924683,59.162903 316.170380,59.877922 310.822601,60.274124 
	C310.822601,49.589085 310.822601,39.016457 310.822601,28.540836 
	C304.663727,28.540836 299.110077,28.540836 293.254761,28.540836 
	C293.254761,62.927784 293.227875,96.901146 293.371338,130.873795 
	C293.376129,132.012939 294.907562,133.861526 296.054260,134.171967 
	C311.870422,138.453934 327.330597,138.782761 342.278931,128.832825 
M196.465378,52.500340 
	C196.465378,44.436756 196.465378,36.373173 196.465378,28.474705 
	C190.159622,28.474705 184.730682,28.474705 178.800201,28.474705 
	C178.800201,38.878548 178.800201,48.955189 178.800201,59.170639 
	C176.792694,59.170639 175.302582,59.172180 173.812485,59.170410 
	C146.536377,59.138008 129.651245,77.586945 132.080917,104.767395 
	C133.483093,120.453445 142.813477,131.826309 157.737488,135.522873 
	C170.310043,138.637024 182.563858,136.821716 194.395096,131.995377 
	C195.578506,131.512619 196.784943,129.346329 196.785126,127.961205 
	C196.788391,103.140930 196.607056,78.320625 196.465378,52.500340 
M107.030434,131.492294 
	C108.008400,132.882706 108.903709,135.395844 109.978226,135.474945 
	C115.504601,135.881821 121.077003,135.663544 127.142014,135.663544 
	C116.119720,102.707306 105.432640,70.686356 94.618164,38.708481 
	C94.255226,37.635307 92.630470,36.307510 91.552437,36.269352 
	C85.099831,36.040962 78.635063,36.156174 73.095024,36.156174 
	C62.264565,69.554924 51.642811,102.310074 40.809929,135.716293 
	C45.858711,135.716293 50.006031,135.535568 54.128857,135.775589 
	C57.220310,135.955597 58.465019,134.743362 59.290131,131.815857 
	C61.403435,124.317795 63.917801,116.932777 66.353371,109.245049 
	C76.836105,109.245049 87.150925,109.154701 97.459106,109.374832 
	C98.577606,109.398712 100.215866,111.014442 100.661476,112.238266 
	C102.882172,118.337273 104.784660,124.552139 107.030434,131.492294 
M469.033447,110.449783 
	C464.777405,105.174316 460.521362,99.898857 456.191284,94.531639 
	C466.076233,83.246674 475.612274,72.360039 486.113983,60.370968 
	C480.407623,60.370968 476.418060,60.662537 472.490936,60.292355 
	C468.210876,59.888908 465.432709,61.379993 462.790527,64.782608 
	C455.686646,73.930870 448.178040,82.764854 439.856689,92.910461 
	C439.856689,70.464096 439.856689,49.472515 439.856689,28.482368 
	C433.635223,28.482368 428.061523,28.482368 422.349640,28.482368 
	C422.349640,64.261642 422.349640,99.683678 422.349640,135.343781 
	C428.289429,135.343781 434.007874,135.343781 440.146423,135.343781 
	C440.146423,124.093658 440.146423,113.212967 440.146423,102.235725 
	C440.703674,102.378967 440.893768,102.368042 440.960876,102.453598 
	C448.776062,112.415886 456.569275,122.395454 464.405975,132.340775 
	C465.317932,133.498047 466.433502,135.340256 467.513153,135.382828 
	C474.515015,135.658966 481.533112,135.524445 489.514282,135.524445 
	C482.315399,126.714890 475.896515,118.859879 469.033447,110.449783 
M245.461700,136.966522 
	C262.563446,136.325394 274.577301,126.834404 277.984619,110.068047 
	C279.350922,103.344887 279.671753,96.087296 278.795654,89.288506 
	C275.704620,65.300781 252.520981,52.252609 230.955704,62.194122 
	C216.841980,68.700493 211.468765,81.039650 210.498932,95.746712 
	C208.936874,119.433739 222.739456,136.080154 245.461700,136.966522 
M490.074341,93.818130 
	C490.072540,97.311050 489.772583,100.834106 490.122101,104.291512 
	C491.417755,117.108505 496.347565,127.924225 508.753418,133.473236 
	C520.567322,138.757446 532.763977,137.982620 544.791260,133.866531 
	C546.039246,133.439438 547.583008,131.759415 547.700378,130.536972 
	C548.074097,126.644646 547.838806,122.693848 547.838806,119.926849 
	C539.296570,120.317780 531.197754,121.590836 523.298035,120.821053 
	C513.469238,119.863281 507.683533,111.847931 508.376373,102.123032 
	C510.155975,102.123032 511.963898,102.131927 513.771729,102.121582 
	C525.256104,102.055885 536.740784,101.918716 548.224792,101.959541 
	C551.545776,101.971352 553.194031,100.810287 553.095520,97.349602 
	C552.996155,93.859634 553.329163,90.345444 553.057312,86.874420 
	C552.046936,73.976456 544.466675,63.900944 533.451416,60.518280 
	C519.073486,56.102982 503.682495,61.564461 496.367065,74.679352 
	C493.290192,80.195450 492.155365,86.794800 490.074341,93.818130 
M371.975494,80.511993 
	C372.242706,88.221977 372.509949,95.931969 372.788757,103.976479 
	C377.129517,102.422813 380.671356,101.155098 384.879669,99.648834 
	C384.879669,111.826393 384.879669,123.286240 384.879669,134.746078 
	C385.146637,134.773422 385.413574,134.800766 385.680542,134.828110 
	C391.344635,118.799072 397.008728,102.770042 402.956879,85.937180 
	C398.810486,87.395355 395.583282,88.530281 391.514130,89.961296 
	C393.345673,79.271553 395.063995,69.242561 396.927765,58.364773 
	C391.483795,60.388626 386.997009,62.050648 382.514557,63.724220 
	C371.662903,67.775810 371.663727,67.777977 371.975494,80.511993 
M365.123474,24.798038 
	C360.654358,32.265377 360.673553,39.697887 365.834778,46.740551 
	C370.930573,53.693947 378.225891,55.594688 386.279572,53.885986 
	C393.923401,52.264244 398.821869,47.238468 400.685394,39.584007 
	C402.767090,31.033083 398.497314,22.166077 390.603516,18.249153 
	C382.011353,13.985677 372.303864,16.294519 365.123474,24.798038 
z"/>
<path fill="#FBFDFC" opacity="1.000000" stroke="none" 
	d="
M1.000002,229.000000 
	C1.000000,215.979111 1.000000,202.958206 1.300877,189.757812 
	C1.999045,189.276672 2.588749,189.060089 2.765183,188.660843 
	C6.226209,180.829224 12.428365,177.949036 20.724777,177.951645 
	C198.821609,178.007706 376.918488,178.028671 555.015198,177.869644 
	C562.220581,177.863205 571.897644,184.710526 572.831665,192.258102 
	C573.920776,201.058945 573.378052,210.048721 574.084717,218.913376 
	C574.864502,228.695801 564.327881,240.114899 553.178894,240.105942 
	C376.081726,239.963577 198.984421,239.969910 21.887283,240.115402 
	C13.339373,240.122437 7.752266,236.183243 2.936944,229.969772 
	C2.538168,229.455185 1.657029,229.314438 1.000002,229.000000 
M40.975853,202.490799 
	C41.450050,201.111298 41.924252,199.731812 42.398453,198.352310 
	C43.810680,205.760330 44.264790,212.877335 44.562767,220.000870 
	C44.705334,223.409027 46.293797,223.697296 49.184555,222.561569 
	C48.480202,211.655136 47.787910,200.935471 47.109192,190.425980 
	C43.032082,189.028473 41.119961,190.178833 39.951717,193.833038 
	C37.679062,200.941696 34.970936,207.911148 32.105335,215.877502 
	C29.393822,207.953735 26.866037,201.120392 24.750025,194.161850 
	C23.603033,190.389969 21.785151,188.798706 17.446802,190.495148 
	C16.719337,201.134323 15.977116,211.989304 15.245234,222.693069 
	C19.177557,224.065613 19.696379,222.164413 19.816093,219.370087 
	C20.102095,212.694290 20.576321,206.026566 20.977959,199.298416 
	C21.712112,199.430695 21.979301,199.419632 22.004005,199.491684 
	C24.320221,206.247635 26.533203,213.040955 28.989771,219.745056 
	C29.469685,221.054764 30.890051,222.019836 31.876648,223.143860 
	C32.855835,221.989517 34.222347,220.987411 34.746349,219.654175 
	C36.875645,214.236435 38.746445,208.717087 40.975853,202.490799 
M239.835052,205.740631 
	C239.501205,207.694550 238.887665,209.647568 238.881287,211.602554 
	C238.851578,220.710724 246.002823,225.532394 253.964005,221.891815 
	C254.628540,221.587952 255.301010,221.301392 256.094696,220.951767 
	C256.575439,228.914536 253.087967,231.314178 244.521103,229.521957 
	C243.533539,229.315369 242.366348,229.967361 241.282440,230.221283 
	C241.795929,231.085312 242.098434,232.366287 242.855331,232.749268 
	C250.993774,236.867249 260.335358,231.915436 260.871643,222.889740 
	C261.323517,215.285461 260.964661,207.633026 260.964661,199.521744 
	C258.868073,199.951141 256.681641,201.162415 255.277420,200.557602 
	C248.281464,197.544434 244.477493,198.482498 239.835052,205.740631 
M160.358627,215.516312 
	C160.512421,213.209503 161.026230,210.859573 160.756119,208.603516 
	C159.722458,199.970367 152.118607,196.367310 144.641968,200.798676 
	C144.163986,201.081970 143.617828,201.250244 142.724930,201.635193 
	C142.724930,198.367828 142.738434,195.550644 142.721939,192.733643 
	C142.693512,187.877701 142.685684,187.877747 138.241913,188.847931 
	C138.241913,200.079559 138.241913,211.354462 138.241913,223.554901 
	C140.021515,222.798615 141.432083,222.199142 143.322006,221.395966 
	C150.203842,226.183258 156.161118,224.642578 160.358627,215.516312 
M402.572723,223.406021 
	C409.870697,219.954285 412.623901,211.335648 408.738373,204.105042 
	C405.547302,198.166748 399.644592,197.335220 393.137878,201.240585 
	C391.059967,200.468536 389.595001,199.924240 388.039551,199.346313 
	C388.039551,211.125580 388.039551,221.996536 388.039551,233.658188 
	C395.422211,231.472290 390.057678,225.100204 392.395264,222.508865 
	C395.800629,222.927567 398.808258,223.297363 402.572723,223.406021 
M177.731903,217.416779 
	C177.731903,219.200958 177.731903,220.985138 177.731903,222.645203 
	C180.972366,223.747543 182.217087,223.031509 182.179550,219.931061 
	C182.150330,217.519089 182.705978,215.100037 183.040192,212.369614 
	C189.030075,215.206070 188.883194,224.207092 197.563568,222.937256 
	C193.951813,218.024704 190.753174,213.674057 187.526520,209.285309 
	C190.503128,206.032974 193.148788,203.142242 196.264130,199.738312 
	C188.185211,198.185074 187.474060,206.803085 182.115433,208.713272 
	C182.115433,202.825882 182.238602,197.336090 182.024185,191.859497 
	C181.973953,190.576385 180.781036,189.338028 180.113846,188.079071 
	C179.319702,189.366257 177.871841,190.636520 177.838028,191.943359 
	C177.626892,200.104141 177.731750,208.273132 177.731903,217.416779 
M90.654099,208.195526 
	C93.128510,205.591873 95.602921,202.988235 98.608849,199.825302 
	C90.377251,198.259827 89.741020,206.892273 84.303703,208.770126 
	C84.303703,202.799347 84.213867,197.162384 84.337921,191.530136 
	C84.410515,188.234528 83.210640,187.343369 79.973572,188.745880 
	C79.973572,199.288666 80.036339,209.768936 79.938713,220.247742 
	C79.905609,223.800583 81.666489,223.512573 83.799675,222.776810 
	C84.324844,219.205811 84.813629,215.882217 85.302414,212.558624 
	C85.841278,212.553055 86.380142,212.547485 86.919006,212.541931 
	C88.659874,214.943329 90.391869,217.351196 92.143631,219.744629 
	C94.926765,223.547195 94.932343,223.543106 99.021561,222.332397 
	C96.102356,217.823334 93.175156,213.301895 90.654099,208.195526 
M281.476959,199.615997 
	C280.597260,200.579529 279.717560,201.543076 278.837860,202.506607 
	C288.696014,201.346619 290.567963,202.112274 290.566223,207.297012 
	C287.151031,208.348679 283.666870,208.977737 280.612946,210.480927 
	C277.240448,212.140900 275.803833,215.772308 277.441101,218.950760 
	C278.582733,221.166992 281.668030,223.440445 284.092804,223.692764 
	C287.867615,224.085617 291.818848,222.783325 295.744232,222.192078 
	C295.744232,218.431747 295.760773,214.443726 295.740936,210.455872 
	C295.692078,200.638245 292.221344,197.784531 281.476959,199.615997 
M493.150635,222.081116 
	C494.483307,222.464310 495.815948,222.847519 497.679138,223.383270 
	C497.679138,218.150787 497.620789,213.847351 497.695984,209.546249 
	C497.767212,205.472778 499.673035,202.711899 503.970764,202.775925 
	C508.060577,202.836884 509.072571,205.890717 509.108917,209.366302 
	C509.155518,213.819412 509.120239,218.273361 509.120239,222.723434 
	C512.356567,223.673935 514.060120,223.329651 513.849243,219.811279 
	C513.670593,216.830002 513.789185,213.829269 513.817871,210.837555 
	C513.858826,206.563492 513.576538,202.324081 509.356873,199.926453 
	C505.002655,197.452316 501.080078,199.151672 498.534821,201.161591 
	C496.320801,200.374786 494.904816,199.871582 493.084412,199.224670 
	C493.084412,207.209427 493.084412,214.180984 493.150635,222.081116 
M233.983673,216.423187 
	C233.959473,213.259003 234.166443,210.072357 233.861847,206.935394 
	C233.270660,200.846588 228.038116,197.378067 222.442642,199.292175 
	C220.775497,199.862457 219.298080,200.987350 218.504135,201.429291 
	C216.772491,200.576279 215.688110,199.894608 214.506714,199.593719 
	C214.289429,199.538361 213.317337,201.021774 213.306427,201.803467 
	C213.209320,208.770172 213.249893,215.738785 213.249893,222.948044 
	C215.072311,222.948044 216.307114,222.948044 217.950623,222.948044 
	C217.950623,218.403564 217.944321,214.100021 217.952454,209.796509 
	C217.960159,205.727081 219.706375,202.877396 223.997940,202.758270 
	C228.475922,202.633987 229.333542,206.077438 229.510666,209.602341 
	C229.686020,213.091888 229.666870,216.599258 229.553986,220.093033 
	C229.430954,223.901108 231.336395,223.533936 233.983734,222.630875 
	C233.983734,220.689636 233.983734,219.036026 233.983673,216.423187 
M60.791759,209.039276 
	C56.418743,210.580521 53.509811,213.326508 54.417904,218.292877 
	C55.152485,222.310303 58.167141,224.169296 62.082352,223.871033 
	C65.652115,223.599075 69.176422,222.730408 72.958290,222.084137 
	C72.958290,218.150665 72.999176,213.686111 72.949486,209.222549 
	C72.855858,200.812180 67.962044,197.054291 59.906261,199.371964 
	C58.572689,199.755630 57.524036,201.129669 56.343719,202.046051 
	C57.739548,202.228073 59.198746,202.765457 60.520096,202.529816 
	C65.871849,201.575470 67.781441,202.818161 67.880768,207.717209 
	C65.780762,208.085541 63.673260,208.455185 60.791759,209.039276 
M470.567810,221.038498 
	C475.200836,223.761536 483.393738,224.491821 485.644379,222.173737 
	C486.128143,221.675461 485.714935,220.306351 485.714935,219.234940 
	C475.541687,221.193069 471.982666,219.458939 471.438660,212.086121 
	C476.843262,212.086121 482.218201,212.086121 487.529633,212.086121 
	C488.118927,204.303864 485.068665,199.623398 479.389893,198.921600 
	C473.045319,198.137512 467.402161,202.195663 467.080292,209.000244 
	C466.900787,212.794388 468.949829,216.693924 470.567810,221.038498 
M122.247574,208.143600 
	C120.686691,201.500702 117.877075,198.840393 112.443207,198.860214 
	C106.793655,198.880829 102.741234,202.486862 101.520020,208.580170 
	C99.526062,218.529160 105.837669,224.832779 116.398125,223.242218 
	C117.936790,223.010483 119.325966,221.786179 120.784317,221.021179 
	C119.314621,220.666290 117.805458,219.893356 116.381973,220.027771 
	C109.675270,220.661057 106.492760,218.502502 106.040977,212.156662 
	C110.340904,212.156662 114.618034,212.048218 118.886070,212.198349 
	C121.348114,212.284973 122.804230,211.736084 122.247574,208.143600 
M561.174805,205.635941 
	C558.252197,199.492645 553.685303,197.381393 547.989136,199.540237 
	C542.231506,201.722366 539.147522,209.185089 541.218445,215.924240 
	C543.144470,222.192017 550.050049,225.244476 557.664490,222.979065 
	C558.730896,222.661804 559.476501,221.266113 560.370544,220.369614 
	C549.116577,221.033020 545.549744,219.237183 545.632019,212.158234 
	C548.262939,212.158234 550.900818,212.158234 553.538757,212.158234 
	C556.270630,212.158234 559.002563,212.158234 562.154907,212.158234 
	C561.818420,209.658920 561.600647,208.041534 561.174805,205.635941 
M338.619507,211.499298 
	C339.547119,221.301437 347.237701,226.340286 356.209015,222.863815 
	C357.139221,222.503342 357.614075,220.967773 359.033508,218.919067 
	C348.339600,221.610336 342.292084,218.427795 343.668396,211.900665 
	C348.950409,211.900665 354.356262,211.900665 359.717957,211.900665 
	C359.934998,204.834503 357.667725,200.677307 353.148041,199.272934 
	C348.394836,197.795975 343.034515,199.699020 340.648621,204.119202 
	C339.576447,206.105530 339.284485,208.513016 338.619507,211.499298 
M434.911957,207.095474 
	C432.402435,200.045044 427.854218,197.380386 421.709015,199.360260 
	C415.818268,201.258163 412.449158,208.570816 414.280853,215.483109 
	C415.971375,221.862747 422.456329,224.981567 430.497345,223.047119 
	C431.691742,222.759781 432.627563,221.397568 433.682983,220.532639 
	C433.369720,220.160660 433.056458,219.788696 432.743195,219.416733 
	C422.386536,221.031784 419.027069,219.394333 418.770233,212.179642 
	C424.031128,212.179642 429.296021,212.179642 435.021179,212.179642 
	C435.021179,210.485855 435.021179,209.219574 434.911957,207.095474 
M312.631256,202.660782 
	C317.337616,202.604889 318.519836,205.732376 318.636475,209.563416 
	C318.771332,213.992462 318.667847,218.428787 318.667847,222.861954 
	C319.296570,223.130661 319.925323,223.399368 320.554047,223.668076 
	C321.385498,222.374924 322.788788,221.142792 322.934570,219.776505 
	C323.285278,216.489319 323.012177,213.138809 323.054962,209.814682 
	C323.106354,205.821884 322.720367,201.378586 318.592651,200.128967 
	C315.126801,199.079712 311.027557,200.122620 307.208740,200.239243 
	C307.293182,200.557327 307.377594,200.875397 307.462036,201.193481 
	C306.075562,200.542480 304.689087,199.891479 302.865540,199.035263 
	C302.865540,207.519379 302.865540,215.092285 302.865540,222.763153 
	C305.669312,223.608154 307.195557,223.269379 307.054047,220.050522 
	C306.908173,216.732300 307.023102,213.402573 307.025879,210.077881 
	C307.028809,206.603851 308.202911,203.900513 312.631256,202.660782 
M376.273590,202.699341 
	C375.146393,204.409164 374.019165,206.118973 372.988495,207.682388 
	C369.148682,205.045715 369.294159,198.194168 362.155792,199.796463 
	C364.936554,203.900803 367.412201,207.554764 369.868408,211.180054 
	C367.133881,215.121811 364.597015,218.778641 362.060181,222.435471 
	C362.402191,222.900284 362.744202,223.365082 363.086212,223.829880 
	C364.820526,222.705307 366.822052,221.838226 368.219177,220.388672 
	C369.837006,218.710129 370.923401,216.519348 372.349396,214.388229 
	C378.883911,223.352676 378.883911,223.352676 383.655029,222.293610 
	C375.081329,215.357635 374.582001,208.116348 382.387482,200.736755 
	C382.540131,200.592453 382.406647,200.145523 382.406647,198.328659 
	C380.017303,199.910858 378.352295,201.013428 376.273590,202.699341 
M518.862976,211.528748 
	C519.555969,220.722763 525.664246,225.348251 534.436951,223.099182 
	C535.589539,222.803680 536.433167,221.302673 537.419861,220.359985 
	C529.458679,220.430634 525.456177,219.537292 524.407776,215.556030 
	C523.640869,212.643860 523.618286,208.464264 525.222900,206.306015 
	C526.769409,204.225861 530.828552,204.012329 533.785156,202.982544 
	C534.963806,202.572021 536.146118,202.171738 537.326721,201.766769 
	C536.322937,200.953384 535.425598,199.650085 534.298279,199.405167 
	C526.279907,197.663162 520.268799,202.140274 518.862976,211.528748 
M440.578918,221.904327 
	C441.849396,222.370956 443.119873,222.837570 444.929352,223.502167 
	C444.929352,218.725266 444.864624,214.933777 444.947266,211.145538 
	C445.032410,207.242447 446.005188,203.963394 450.591156,203.003143 
	C451.366638,202.840759 451.845093,201.259766 452.460754,200.334183 
	C451.392365,199.932159 450.142822,198.971970 449.294342,199.247391 
	C447.661377,199.777496 446.255402,201.006897 445.253387,201.634369 
	C443.955536,200.824875 442.888550,200.159378 441.821594,199.493896 
	C441.339783,200.702408 440.463409,201.904297 440.442963,203.120544 
	C440.342987,209.078339 440.470917,215.039978 440.578918,221.904327 
M170.849777,220.192841 
	C170.849869,214.193054 170.959045,208.189270 170.740234,202.197479 
	C170.704697,201.224396 169.215820,200.304398 168.398682,199.359848 
	C167.670288,200.230896 166.332443,201.086639 166.310135,201.975433 
	C166.135590,208.929443 166.213486,215.889801 166.213486,222.848190 
	C166.640671,223.152878 167.067871,223.457565 167.495056,223.762253 
	C168.609818,222.883331 169.724564,222.004395 170.849777,220.192841 
M461.203949,219.352539 
	C461.204163,213.883514 461.129089,208.413071 461.233093,202.946014 
	C461.294678,199.709579 460.103607,198.742447 457.160461,200.026321 
	C457.160461,207.745392 457.160461,215.295181 457.160461,222.844971 
	C457.589020,223.121292 458.017548,223.397614 458.446106,223.673935 
	C459.364929,222.556992 460.283783,221.440063 461.203949,219.352539 
M201.818436,206.541656 
	C201.818329,211.000137 201.918503,215.461624 201.785965,219.916153 
	C201.682327,223.399750 203.197495,223.737778 206.068420,222.502701 
	C206.068420,218.598816 206.068405,214.812576 206.068405,211.026352 
	C206.068405,207.278198 206.068420,203.530045 206.068420,199.758591 
	C201.834045,199.992554 201.834045,199.992554 201.818436,206.541656 
M460.693329,190.522675 
	C459.193451,191.130096 457.693542,191.737503 456.193665,192.344925 
	C457.191986,193.370819 458.190308,194.396729 459.188599,195.422638 
	C459.858612,193.967163 460.528595,192.511688 460.693329,190.522675 
z"/>
<path fill="#000000" opacity="1.000000" stroke="none" 
	d="
M1.000002,229.476654 
	C1.657029,229.314438 2.538168,229.455185 2.936944,229.969772 
	C7.752266,236.183243 13.339373,240.122437 21.887283,240.115402 
	C198.984421,239.969910 376.081726,239.963577 553.178894,240.105942 
	C564.327881,240.114899 574.864502,228.695801 574.084717,218.913376 
	C573.378052,210.048721 573.920776,201.058945 572.831665,192.258102 
	C571.897644,184.710526 562.220581,177.863205 555.015198,177.869644 
	C376.918488,178.028671 198.821609,178.007706 20.724777,177.951645 
	C12.428365,177.949036 6.226209,180.829224 2.765183,188.660843 
	C2.588749,189.060089 1.999045,189.276672 1.300877,189.289154 
	C1.000000,172.645767 1.000000,156.291550 1.000000,139.468658 
	C1.653842,139.316452 2.796800,139.527786 2.890659,139.964569 
	C5.983705,154.358475 19.184635,163.063370 33.586475,163.056351 
	C204.155884,162.973312 374.725342,162.986176 545.294800,163.037247 
	C557.850708,163.041000 570.848389,154.938065 573.968750,141.621338 
	C574.882202,137.722855 575.896057,133.719635 575.914673,129.759979 
	C576.069824,96.779503 576.263489,63.794823 575.862915,30.818485 
	C575.720642,19.107468 570.006653,9.880831 559.436707,4.094963 
	C558.057495,3.339989 556.756531,2.442129 555.709656,1.305230 
	C563.329407,1.000000 570.658875,1.000000 577.991211,1.000000 
	C577.994141,81.286713 577.994141,161.573425 577.994141,241.930069 
	C385.666687,241.930069 193.333344,241.930069 1.000000,241.930069 
	C1.000000,237.949097 1.000000,233.951202 1.000002,229.476654 
z"/>
<path fill="#000000" opacity="1.000000" stroke="none" 
	d="
M21.531088,1.000000 
	C21.855555,1.622451 21.866327,2.690555 21.544170,2.802760 
	C11.055300,6.455937 5.389051,14.210014 2.727919,24.603796 
	C2.626844,24.998569 2.027703,25.265821 1.330328,25.296249 
	C1.000000,17.078711 1.000000,9.157420 1.000000,1.000000 
	C7.685549,1.000000 14.373862,1.000000 21.531088,1.000000 
z"/>
<path fill="#060606" opacity="1.000000" stroke="none" 
	d="
M341.979340,129.034180 
	C327.330597,138.782761 311.870422,138.453934 296.054260,134.171967 
	C294.907562,133.861526 293.376129,132.012939 293.371338,130.873795 
	C293.227875,96.901146 293.254761,62.927784 293.254761,28.540836 
	C299.110077,28.540836 304.663727,28.540836 310.822601,28.540836 
	C310.822601,39.016457 310.822601,49.589085 310.822601,60.274124 
	C316.170380,59.877922 320.924683,59.162903 325.665771,59.241764 
	C340.499207,59.488503 352.046326,68.406174 356.414825,82.607491 
	C361.684479,99.738365 356.161652,117.798454 341.979340,129.034180 
M336.869812,82.822426 
	C331.371246,75.320435 322.821594,72.398888 313.957428,75.222305 
	C312.835266,75.579735 311.267975,77.041229 311.256226,78.007675 
	C311.082031,92.299294 311.136108,106.593689 311.136108,120.744797 
	C323.343018,124.564529 335.172699,118.353462 338.697601,106.370667 
	C340.971313,98.641373 340.890778,90.914268 336.869812,82.822426 
z"/>
<path fill="#040404" opacity="1.000000" stroke="none" 
	d="
M196.465363,53.000336 
	C196.607056,78.320625 196.788391,103.140930 196.785126,127.961205 
	C196.784943,129.346329 195.578506,131.512619 194.395096,131.995377 
	C182.563858,136.821716 170.310043,138.637024 157.737488,135.522873 
	C142.813477,131.826309 133.483093,120.453445 132.080917,104.767395 
	C129.651245,77.586945 146.536377,59.138008 173.812485,59.170410 
	C175.302582,59.172180 176.792694,59.170639 178.800201,59.170639 
	C178.800201,48.955189 178.800201,38.878548 178.800201,28.474705 
	C184.730682,28.474705 190.159622,28.474705 196.465378,28.474705 
	C196.465378,36.373173 196.465378,44.436756 196.465363,53.000336 
M168.278214,74.597336 
	C157.933975,76.854317 152.101379,82.956764 150.331619,93.374237 
	C147.316055,111.125145 158.303894,123.602814 175.003204,121.211212 
	C176.403381,121.010681 178.723007,119.473091 178.738770,118.525475 
	C178.978790,104.097977 178.905655,89.665283 178.905655,74.398598 
	C175.308701,74.398598 172.204453,74.398598 168.278214,74.597336 
z"/>
<path fill="#060606" opacity="1.000000" stroke="none" 
	d="
M106.914787,131.109253 
	C104.784660,124.552139 102.882172,118.337273 100.661476,112.238266 
	C100.215866,111.014442 98.577606,109.398712 97.459106,109.374832 
	C87.150925,109.154701 76.836105,109.245049 66.353371,109.245049 
	C63.917801,116.932777 61.403435,124.317795 59.290131,131.815857 
	C58.465019,134.743362 57.220310,135.955597 54.128857,135.775589 
	C50.006031,135.535568 45.858711,135.716293 40.809929,135.716293 
	C51.642811,102.310074 62.264565,69.554924 73.095024,36.156174 
	C78.635063,36.156174 85.099831,36.040962 91.552437,36.269352 
	C92.630470,36.307510 94.255226,37.635307 94.618164,38.708481 
	C105.432640,70.686356 116.119720,102.707306 127.142014,135.663544 
	C121.077003,135.663544 115.504601,135.881821 109.978226,135.474945 
	C108.903709,135.395844 108.008400,132.882706 106.914787,131.109253 
M81.891815,55.433231 
	C78.275253,67.878288 74.658699,80.323349 71.000748,92.910866 
	C79.300926,92.910866 87.044037,92.910866 95.277458,92.910866 
	C91.228439,79.374290 87.287819,66.200127 83.115074,52.249905 
	C82.532158,53.542130 82.285179,54.089630 81.891815,55.433231 
z"/>
<path fill="#070707" opacity="1.000000" stroke="none" 
	d="
M469.255554,110.727325 
	C475.896515,118.859879 482.315399,126.714890 489.514282,135.524445 
	C481.533112,135.524445 474.515015,135.658966 467.513153,135.382828 
	C466.433502,135.340256 465.317932,133.498047 464.405975,132.340775 
	C456.569275,122.395454 448.776062,112.415886 440.960876,102.453598 
	C440.893768,102.368042 440.703674,102.378967 440.146423,102.235725 
	C440.146423,113.212967 440.146423,124.093658 440.146423,135.343781 
	C434.007874,135.343781 428.289429,135.343781 422.349640,135.343781 
	C422.349640,99.683678 422.349640,64.261642 422.349640,28.482368 
	C428.061523,28.482368 433.635223,28.482368 439.856689,28.482368 
	C439.856689,49.472515 439.856689,70.464096 439.856689,92.910461 
	C448.178040,82.764854 455.686646,73.930870 462.790527,64.782608 
	C465.432709,61.379993 468.210876,59.888908 472.490936,60.292355 
	C476.418060,60.662537 480.407623,60.370968 486.113983,60.370968 
	C475.612274,72.360039 466.076233,83.246674 456.191284,94.531639 
	C460.521362,99.898857 464.777405,105.174316 469.255554,110.727325 
z"/>
<path fill="#060606" opacity="1.000000" stroke="none" 
	d="
M245.002136,136.966614 
	C222.739456,136.080154 208.936874,119.433739 210.498932,95.746712 
	C211.468765,81.039650 216.841980,68.700493 230.955704,62.194122 
	C252.520981,52.252609 275.704620,65.300781 278.795654,89.288506 
	C279.671753,96.087296 279.350922,103.344887 277.984619,110.068047 
	C274.577301,126.834404 262.563446,136.325394 245.002136,136.966614 
M249.309219,74.915878 
	C241.950745,73.285469 236.589874,75.194527 232.765350,80.807335 
	C226.836212,89.508835 226.970093,106.919090 233.031784,115.456444 
	C238.917770,123.746338 250.315399,124.245056 256.502014,116.483383 
	C263.297424,107.957947 263.359222,88.046616 256.366974,79.768097 
	C254.725647,77.824852 252.193085,76.634361 249.309219,74.915878 
z"/>
<path fill="#060606" opacity="1.000000" stroke="none" 
	d="
M490.106018,93.359924 
	C492.155365,86.794800 493.290192,80.195450 496.367065,74.679352 
	C503.682495,61.564461 519.073486,56.102982 533.451416,60.518280 
	C544.466675,63.900944 552.046936,73.976456 553.057312,86.874420 
	C553.329163,90.345444 552.996155,93.859634 553.095520,97.349602 
	C553.194031,100.810287 551.545776,101.971352 548.224792,101.959541 
	C536.740784,101.918716 525.256104,102.055885 513.771729,102.121582 
	C511.963898,102.131927 510.155975,102.123032 508.376373,102.123032 
	C507.683533,111.847931 513.469238,119.863281 523.298035,120.821053 
	C531.197754,121.590836 539.296570,120.317780 547.838806,119.926849 
	C547.838806,122.693848 548.074097,126.644646 547.700378,130.536972 
	C547.583008,131.759415 546.039246,133.439438 544.791260,133.866531 
	C532.763977,137.982620 520.567322,138.757446 508.753418,133.473236 
	C496.347565,127.924225 491.417755,117.108505 490.122101,104.291512 
	C489.772583,100.834106 490.072540,97.311050 490.106018,93.359924 
M520.297852,73.777946 
	C512.810547,75.851982 509.375916,80.178413 508.334167,88.905556 
	C517.725647,88.905556 527.103394,88.905556 536.472412,88.905556 
	C536.535339,78.399963 531.058228,73.116341 520.297852,73.777946 
z"/>
<path fill="#079549" opacity="1.000000" stroke="none" 
	d="
M371.971344,80.015121 
	C371.663727,67.777977 371.662903,67.775810 382.514557,63.724220 
	C386.997009,62.050648 391.483795,60.388626 396.927765,58.364773 
	C395.063995,69.242561 393.345673,79.271553 391.514130,89.961296 
	C395.583282,88.530281 398.810486,87.395355 402.956879,85.937180 
	C397.008728,102.770042 391.344635,118.799072 385.680542,134.828110 
	C385.413574,134.800766 385.146637,134.773422 384.879669,134.746078 
	C384.879669,123.286240 384.879669,111.826393 384.879669,99.648834 
	C380.671356,101.155098 377.129517,102.422813 372.788757,103.976479 
	C372.509949,95.931969 372.242706,88.221977 371.971344,80.015121 
z"/>
<path fill="#0A0A0A" opacity="1.000000" stroke="none" 
	d="
M365.343445,24.501381 
	C372.303864,16.294519 382.011353,13.985677 390.603516,18.249153 
	C398.497314,22.166077 402.767090,31.033083 400.685394,39.584007 
	C398.821869,47.238468 393.923401,52.264244 386.279572,53.885986 
	C378.225891,55.594688 370.930573,53.693947 365.834778,46.740551 
	C360.673553,39.697887 360.654358,32.265377 365.343445,24.501381 
M390.152069,37.271828 
	C388.683136,33.753235 387.319092,30.185860 385.712708,26.731190 
	C384.381256,23.867863 379.288757,23.154705 378.040253,25.787273 
	C375.159119,31.862255 372.746857,38.159588 370.054077,44.582100 
	C375.036346,44.582100 379.358582,44.582100 383.680847,44.582100 
	C383.883362,44.188377 384.085876,43.794659 384.288391,43.400936 
	C382.501373,41.962685 380.714355,40.524433 378.798950,38.982849 
	C379.562958,37.203575 380.405365,35.241695 381.260315,33.250633 
	C385.829346,36.376812 383.003784,46.673920 393.216583,44.584816 
	C392.208527,42.164021 391.334991,40.066330 390.152069,37.271828 
z"/>
<path fill="#199A53" opacity="1.000000" stroke="none" 
	d="
M40.844208,202.863007 
	C38.746445,208.717087 36.875645,214.236435 34.746349,219.654175 
	C34.222347,220.987411 32.855835,221.989517 31.876648,223.143860 
	C30.890051,222.019836 29.469685,221.054764 28.989771,219.745056 
	C26.533203,213.040955 24.320221,206.247635 22.004005,199.491684 
	C21.979301,199.419632 21.712112,199.430695 20.977959,199.298416 
	C20.576321,206.026566 20.102095,212.694290 19.816093,219.370087 
	C19.696379,222.164413 19.177557,224.065613 15.245234,222.693069 
	C15.977116,211.989304 16.719337,201.134323 17.446802,190.495148 
	C21.785151,188.798706 23.603033,190.389969 24.750025,194.161850 
	C26.866037,201.120392 29.393822,207.953735 32.105335,215.877502 
	C34.970936,207.911148 37.679062,200.941696 39.951717,193.833038 
	C41.119961,190.178833 43.032082,189.028473 47.109192,190.425980 
	C47.787910,200.935471 48.480202,211.655136 49.184555,222.561569 
	C46.293797,223.697296 44.705334,223.409027 44.562767,220.000870 
	C44.264790,212.877335 43.810680,205.760330 42.398453,198.352310 
	C41.924252,199.731812 41.450050,201.111298 40.844208,202.863007 
z"/>
<path fill="#179951" opacity="1.000000" stroke="none" 
	d="
M239.981445,205.372604 
	C244.477493,198.482498 248.281464,197.544434 255.277420,200.557602 
	C256.681641,201.162415 258.868073,199.951141 260.964661,199.521744 
	C260.964661,207.633026 261.323517,215.285461 260.871643,222.889740 
	C260.335358,231.915436 250.993774,236.867249 242.855331,232.749268 
	C242.098434,232.366287 241.795929,231.085312 241.282440,230.221283 
	C242.366348,229.967361 243.533539,229.315369 244.521103,229.521957 
	C253.087967,231.314178 256.575439,228.914536 256.094696,220.951767 
	C255.301010,221.301392 254.628540,221.587952 253.964005,221.891815 
	C246.002823,225.532394 238.851578,220.710724 238.881287,211.602554 
	C238.887665,209.647568 239.501205,207.694550 239.981445,205.372604 
M256.465729,207.397522 
	C254.454102,205.716156 252.648865,203.216782 250.358780,202.638916 
	C248.813736,202.249054 245.353775,204.217941 244.916077,205.750275 
	C243.983353,209.015717 243.724243,212.899246 244.660828,216.098679 
	C245.150940,217.772964 248.898376,219.653473 250.912918,219.395599 
	C252.927856,219.137680 255.169220,216.624542 256.275269,214.548111 
	C257.179321,212.850861 256.558014,210.341110 256.465729,207.397522 
z"/>
<path fill="#1C9C56" opacity="1.000000" stroke="none" 
	d="
M160.237152,215.901184 
	C156.161118,224.642578 150.203842,226.183258 143.322006,221.395966 
	C141.432083,222.199142 140.021515,222.798615 138.241913,223.554901 
	C138.241913,211.354462 138.241913,200.079559 138.241913,188.847931 
	C142.685684,187.877747 142.693512,187.877701 142.721939,192.733643 
	C142.738434,195.550644 142.724930,198.367828 142.724930,201.635193 
	C143.617828,201.250244 144.163986,201.081970 144.641968,200.798676 
	C152.118607,196.367310 159.722458,199.970367 160.756119,208.603516 
	C161.026230,210.859573 160.512421,213.209503 160.237152,215.901184 
M144.348755,204.968887 
	C143.899490,208.480331 142.806961,212.059814 143.169266,215.485413 
	C143.590179,219.465027 148.475662,221.327225 152.168381,219.568130 
	C156.026871,217.730072 157.666061,210.905167 155.343613,206.347733 
	C153.279938,202.298080 149.706375,201.614456 144.348755,204.968887 
z"/>
<path fill="#169951" opacity="1.000000" stroke="none" 
	d="
M402.194305,223.536591 
	C398.808258,223.297363 395.800629,222.927567 392.395264,222.508865 
	C390.057678,225.100204 395.422211,231.472290 388.039551,233.658188 
	C388.039551,221.996536 388.039551,211.125580 388.039551,199.346313 
	C389.595001,199.924240 391.059967,200.468536 393.137878,201.240585 
	C399.644592,197.335220 405.547302,198.166748 408.738373,204.105042 
	C412.623901,211.335648 409.870697,219.954285 402.194305,223.536591 
M398.628998,202.423386 
	C392.547729,204.506531 389.829102,212.085693 393.281097,217.332458 
	C395.723541,221.044800 401.210815,221.273880 403.965088,217.778488 
	C408.080658,212.555603 405.733765,204.715591 398.628998,202.423386 
z"/>
<path fill="#169951" opacity="1.000000" stroke="none" 
	d="
M177.731903,216.928085 
	C177.731750,208.273132 177.626892,200.104141 177.838028,191.943359 
	C177.871841,190.636520 179.319702,189.366257 180.113846,188.079071 
	C180.781036,189.338028 181.973953,190.576385 182.024185,191.859497 
	C182.238602,197.336090 182.115433,202.825882 182.115433,208.713272 
	C187.474060,206.803085 188.185211,198.185074 196.264130,199.738312 
	C193.148788,203.142242 190.503128,206.032974 187.526520,209.285309 
	C190.753174,213.674057 193.951813,218.024704 197.563568,222.937256 
	C188.883194,224.207092 189.030075,215.206070 183.040192,212.369614 
	C182.705978,215.100037 182.150330,217.519089 182.179550,219.931061 
	C182.217087,223.031509 180.972366,223.747543 177.731903,222.645203 
	C177.731903,220.985138 177.731903,219.200958 177.731903,216.928085 
z"/>
<path fill="#11974D" opacity="1.000000" stroke="none" 
	d="
M90.451019,208.487991 
	C93.175156,213.301895 96.102356,217.823334 99.021561,222.332397 
	C94.932343,223.543106 94.926765,223.547195 92.143631,219.744629 
	C90.391869,217.351196 88.659874,214.943329 86.919006,212.541931 
	C86.380142,212.547485 85.841278,212.553055 85.302414,212.558624 
	C84.813629,215.882217 84.324844,219.205811 83.799675,222.776810 
	C81.666489,223.512573 79.905609,223.800583 79.938713,220.247742 
	C80.036339,209.768936 79.973572,199.288666 79.973572,188.745880 
	C83.210640,187.343369 84.410515,188.234528 84.337921,191.530136 
	C84.213867,197.162384 84.303703,202.799347 84.303703,208.770126 
	C89.741020,206.892273 90.377251,198.259827 98.608849,199.825302 
	C95.602921,202.988235 93.128510,205.591873 90.451019,208.487991 
z"/>
<path fill="#1B9B55" opacity="1.000000" stroke="none" 
	d="
M281.869751,199.482666 
	C292.221344,197.784531 295.692078,200.638245 295.740936,210.455872 
	C295.760773,214.443726 295.744232,218.431747 295.744232,222.192078 
	C291.818848,222.783325 287.867615,224.085617 284.092804,223.692764 
	C281.668030,223.440445 278.582733,221.166992 277.441101,218.950760 
	C275.803833,215.772308 277.240448,212.140900 280.612946,210.480927 
	C283.666870,208.977737 287.151031,208.348679 290.566223,207.297012 
	C290.567963,202.112274 288.696014,201.346619 278.837860,202.506607 
	C279.717560,201.543076 280.597260,200.579529 281.869751,199.482666 
M288.814392,211.203903 
	C286.960052,211.786911 284.854187,211.994919 283.305573,213.033722 
	C280.399994,214.982758 280.797760,219.521713 283.918243,219.951492 
	C285.947784,220.231033 289.128632,219.253952 290.143890,217.736237 
	C291.100708,216.305847 289.897064,213.430252 288.814392,211.203903 
z"/>
<path fill="#209E59" opacity="1.000000" stroke="none" 
	d="
M493.117523,221.616821 
	C493.084412,214.180984 493.084412,207.209427 493.084412,199.224670 
	C494.904816,199.871582 496.320801,200.374786 498.534821,201.161591 
	C501.080078,199.151672 505.002655,197.452316 509.356873,199.926453 
	C513.576538,202.324081 513.858826,206.563492 513.817871,210.837555 
	C513.789185,213.829269 513.670593,216.830002 513.849243,219.811279 
	C514.060120,223.329651 512.356567,223.673935 509.120239,222.723434 
	C509.120239,218.273361 509.155518,213.819412 509.108917,209.366302 
	C509.072571,205.890717 508.060577,202.836884 503.970764,202.775925 
	C499.673035,202.711899 497.767212,205.472778 497.695984,209.546249 
	C497.620789,213.847351 497.679138,218.150787 497.679138,223.383270 
	C495.815948,222.847519 494.483307,222.464310 493.117523,221.616821 
z"/>
<path fill="#1C9C56" opacity="1.000000" stroke="none" 
	d="
M233.983704,216.902802 
	C233.983734,219.036026 233.983734,220.689636 233.983734,222.630875 
	C231.336395,223.533936 229.430954,223.901108 229.553986,220.093033 
	C229.666870,216.599258 229.686020,213.091888 229.510666,209.602341 
	C229.333542,206.077438 228.475922,202.633987 223.997940,202.758270 
	C219.706375,202.877396 217.960159,205.727081 217.952454,209.796509 
	C217.944321,214.100021 217.950623,218.403564 217.950623,222.948044 
	C216.307114,222.948044 215.072311,222.948044 213.249893,222.948044 
	C213.249893,215.738785 213.209320,208.770172 213.306427,201.803467 
	C213.317337,201.021774 214.289429,199.538361 214.506714,199.593719 
	C215.688110,199.894608 216.772491,200.576279 218.504135,201.429291 
	C219.298080,200.987350 220.775497,199.862457 222.442642,199.292175 
	C228.038116,197.378067 233.270660,200.846588 233.861847,206.935394 
	C234.166443,210.072357 233.959473,213.259003 233.983704,216.902802 
z"/>
<path fill="#189A53" opacity="1.000000" stroke="none" 
	d="
M61.178761,208.932053 
	C63.673260,208.455185 65.780762,208.085541 67.880768,207.717209 
	C67.781441,202.818161 65.871849,201.575470 60.520096,202.529816 
	C59.198746,202.765457 57.739548,202.228073 56.343719,202.046051 
	C57.524036,201.129669 58.572689,199.755630 59.906261,199.371964 
	C67.962044,197.054291 72.855858,200.812180 72.949486,209.222549 
	C72.999176,213.686111 72.958290,218.150665 72.958290,222.084137 
	C69.176422,222.730408 65.652115,223.599075 62.082352,223.871033 
	C58.167141,224.169296 55.152485,222.310303 54.417904,218.292877 
	C53.509811,213.326508 56.418743,210.580521 61.178761,208.932053 
M61.675087,220.288254 
	C67.856636,219.931763 69.562256,217.550522 67.745544,210.149399 
	C64.764595,211.666382 61.775967,212.778442 59.421162,214.676758 
	C58.841629,215.143936 60.327717,218.173462 61.675087,220.288254 
z"/>
<path fill="#1A9A53" opacity="1.000000" stroke="none" 
	d="
M470.281189,220.792236 
	C468.949829,216.693924 466.900787,212.794388 467.080292,209.000244 
	C467.402161,202.195663 473.045319,198.137512 479.389893,198.921600 
	C485.068665,199.623398 488.118927,204.303864 487.529633,212.086121 
	C482.218201,212.086121 476.843262,212.086121 471.438660,212.086121 
	C471.982666,219.458939 475.541687,221.193069 485.714935,219.234940 
	C485.714935,220.306351 486.128143,221.675461 485.644379,222.173737 
	C483.393738,224.491821 475.200836,223.761536 470.281189,220.792236 
M479.128021,202.234482 
	C474.412262,201.619461 472.208191,204.098419 471.090881,208.731293 
	C475.334900,208.731293 479.169220,208.731293 484.647583,208.731293 
	C482.587769,206.025055 481.237976,204.251678 479.128021,202.234482 
z"/>
<path fill="#179952" opacity="1.000000" stroke="none" 
	d="
M122.282654,208.535889 
	C122.804230,211.736084 121.348114,212.284973 118.886070,212.198349 
	C114.618034,212.048218 110.340904,212.156662 106.040977,212.156662 
	C106.492760,218.502502 109.675270,220.661057 116.381973,220.027771 
	C117.805458,219.893356 119.314621,220.666290 120.784317,221.021179 
	C119.325966,221.786179 117.936790,223.010483 116.398125,223.242218 
	C105.837669,224.832779 99.526062,218.529160 101.520020,208.580170 
	C102.741234,202.486862 106.793655,198.880829 112.443207,198.860214 
	C117.877075,198.840393 120.686691,201.500702 122.282654,208.535889 
M116.872482,208.969055 
	C116.741455,207.298859 117.235397,204.884689 116.335991,204.129150 
	C114.912163,202.933044 112.156273,201.898483 110.687637,202.516129 
	C108.525482,203.425461 106.999763,205.848099 105.202950,207.626129 
	C105.532700,208.095856 105.862450,208.565567 106.192207,209.035278 
	C109.459953,209.035278 112.727699,209.035278 116.872482,208.969055 
z"/>
<path fill="#199A52" opacity="1.000000" stroke="none" 
	d="
M561.278809,206.030060 
	C561.600647,208.041534 561.818420,209.658920 562.154907,212.158234 
	C559.002563,212.158234 556.270630,212.158234 553.538757,212.158234 
	C550.900818,212.158234 548.262939,212.158234 545.632019,212.158234 
	C545.549744,219.237183 549.116577,221.033020 560.370544,220.369614 
	C559.476501,221.266113 558.730896,222.661804 557.664490,222.979065 
	C550.050049,225.244476 543.144470,222.192017 541.218445,215.924240 
	C539.147522,209.185089 542.231506,201.722366 547.989136,199.540237 
	C553.685303,197.381393 558.252197,199.492645 561.278809,206.030060 
M552.494568,209.049072 
	C554.053040,208.956741 555.611450,208.864426 557.417664,208.757416 
	C557.118774,204.654861 555.644958,202.080078 551.753418,202.148254 
	C547.699890,202.219284 545.668213,204.645187 545.374573,209.049026 
	C547.641846,209.049026 549.611328,209.049026 552.494568,209.049072 
z"/>
<path fill="#179952" opacity="1.000000" stroke="none" 
	d="
M338.628998,211.114349 
	C339.284485,208.513016 339.576447,206.105530 340.648621,204.119202 
	C343.034515,199.699020 348.394836,197.795975 353.148041,199.272934 
	C357.667725,200.677307 359.934998,204.834503 359.717957,211.900665 
	C354.356262,211.900665 348.950409,211.900665 343.668396,211.900665 
	C342.292084,218.427795 348.339600,221.610336 359.033508,218.919067 
	C357.614075,220.967773 357.139221,222.503342 356.209015,222.863815 
	C347.237701,226.340286 339.547119,221.301437 338.628998,211.114349 
M351.070374,202.199722 
	C346.354340,201.639938 344.161713,204.165924 343.004425,208.701553 
	C347.394775,208.701553 351.371796,208.701553 357.044281,208.701553 
	C354.729126,205.918777 353.271576,204.166824 351.070374,202.199722 
z"/>
<path fill="#169951" opacity="1.000000" stroke="none" 
	d="
M434.966553,207.524384 
	C435.021179,209.219574 435.021179,210.485855 435.021179,212.179642 
	C429.296021,212.179642 424.031128,212.179642 418.770233,212.179642 
	C419.027069,219.394333 422.386536,221.031784 432.743195,219.416733 
	C433.056458,219.788696 433.369720,220.160660 433.682983,220.532639 
	C432.627563,221.397568 431.691742,222.759781 430.497345,223.047119 
	C422.456329,224.981567 415.971375,221.862747 414.280853,215.483109 
	C412.449158,208.570816 415.818268,201.258163 421.709015,199.360260 
	C427.854218,197.380386 432.402435,200.045044 434.966553,207.524384 
M424.560486,209.055420 
	C426.613739,209.055420 428.666962,209.055420 431.122284,209.055420 
	C430.258484,204.589203 428.725281,201.813904 424.548462,202.132980 
	C420.710693,202.426147 418.878387,204.912643 418.475006,209.055420 
	C420.395020,209.055420 422.035126,209.055420 424.560486,209.055420 
z"/>
<path fill="#14984F" opacity="1.000000" stroke="none" 
	d="
M312.225159,202.734406 
	C308.202911,203.900513 307.028809,206.603851 307.025879,210.077881 
	C307.023102,213.402573 306.908173,216.732300 307.054047,220.050522 
	C307.195557,223.269379 305.669312,223.608154 302.865540,222.763153 
	C302.865540,215.092285 302.865540,207.519379 302.865540,199.035263 
	C304.689087,199.891479 306.075562,200.542480 307.462036,201.193481 
	C307.377594,200.875397 307.293182,200.557327 307.208740,200.239243 
	C311.027557,200.122620 315.126801,199.079712 318.592651,200.128967 
	C322.720367,201.378586 323.106354,205.821884 323.054962,209.814682 
	C323.012177,213.138809 323.285278,216.489319 322.934570,219.776505 
	C322.788788,221.142792 321.385498,222.374924 320.554047,223.668076 
	C319.925323,223.399368 319.296570,223.130661 318.667847,222.861954 
	C318.667847,218.428787 318.771332,213.992462 318.636475,209.563416 
	C318.519836,205.732376 317.337616,202.604889 312.225159,202.734406 
z"/>
<path fill="#179A53" opacity="1.000000" stroke="none" 
	d="
M376.480438,202.407654 
	C378.352295,201.013428 380.017303,199.910858 382.406647,198.328659 
	C382.406647,200.145523 382.540131,200.592453 382.387482,200.736755 
	C374.582001,208.116348 375.081329,215.357635 383.655029,222.293610 
	C378.883911,223.352676 378.883911,223.352676 372.349396,214.388229 
	C370.923401,216.519348 369.837006,218.710129 368.219177,220.388672 
	C366.822052,221.838226 364.820526,222.705307 363.086212,223.829880 
	C362.744202,223.365082 362.402191,222.900284 362.060181,222.435471 
	C364.597015,218.778641 367.133881,215.121811 369.868408,211.180054 
	C367.412201,207.554764 364.936554,203.900803 362.155792,199.796463 
	C369.294159,198.194168 369.148682,205.045715 372.988495,207.682388 
	C374.019165,206.118973 375.146393,204.409164 376.480438,202.407654 
z"/>
<path fill="#199A53" opacity="1.000000" stroke="none" 
	d="
M518.865845,211.105621 
	C520.268799,202.140274 526.279907,197.663162 534.298279,199.405167 
	C535.425598,199.650085 536.322937,200.953384 537.326721,201.766769 
	C536.146118,202.171738 534.963806,202.572021 533.785156,202.982544 
	C530.828552,204.012329 526.769409,204.225861 525.222900,206.306015 
	C523.618286,208.464264 523.640869,212.643860 524.407776,215.556030 
	C525.456177,219.537292 529.458679,220.430634 537.419861,220.359985 
	C536.433167,221.302673 535.589539,222.803680 534.436951,223.099182 
	C525.664246,225.348251 519.555969,220.722763 518.865845,211.105621 
z"/>
<path fill="#169951" opacity="1.000000" stroke="none" 
	d="
M440.548584,221.452286 
	C440.470917,215.039978 440.342987,209.078339 440.442963,203.120544 
	C440.463409,201.904297 441.339783,200.702408 441.821594,199.493896 
	C442.888550,200.159378 443.955536,200.824875 445.253387,201.634369 
	C446.255402,201.006897 447.661377,199.777496 449.294342,199.247391 
	C450.142822,198.971970 451.392365,199.932159 452.460754,200.334198 
	C451.845093,201.259766 451.366638,202.840759 450.591156,203.003143 
	C446.005188,203.963394 445.032410,207.242447 444.947266,211.145538 
	C444.864624,214.933777 444.929352,218.725266 444.929352,223.502167 
	C443.119873,222.837570 441.849396,222.370956 440.548584,221.452286 
z"/>
<path fill="#2AA25F" opacity="1.000000" stroke="none" 
	d="
M170.844543,220.659149 
	C169.724564,222.004395 168.609818,222.883331 167.495056,223.762253 
	C167.067871,223.457565 166.640671,223.152878 166.213486,222.848190 
	C166.213486,215.889801 166.135590,208.929443 166.310135,201.975433 
	C166.332443,201.086639 167.670288,200.230896 168.398682,199.359863 
	C169.215820,200.304398 170.704697,201.224396 170.740234,202.197479 
	C170.959045,208.189270 170.849869,214.193054 170.844543,220.659149 
z"/>
<path fill="#10964C" opacity="1.000000" stroke="none" 
	d="
M461.203278,219.837830 
	C460.283783,221.440063 459.364929,222.556992 458.446106,223.673935 
	C458.017548,223.397614 457.589020,223.121292 457.160461,222.844971 
	C457.160461,215.295181 457.160461,207.745392 457.160461,200.026321 
	C460.103607,198.742447 461.294678,199.709579 461.233093,202.946014 
	C461.129089,208.413071 461.204163,213.883514 461.203278,219.837830 
z"/>
<path fill="#079347" opacity="1.000000" stroke="none" 
	d="
M201.818359,206.048599 
	C201.834045,199.992554 201.834045,199.992554 206.068420,199.758591 
	C206.068420,203.530045 206.068405,207.278198 206.068405,211.026352 
	C206.068405,214.812576 206.068420,218.598816 206.068420,222.502701 
	C203.197495,223.737778 201.682327,223.399750 201.785965,219.916153 
	C201.918503,215.461624 201.818329,211.000137 201.818359,206.048599 
z"/>
<path fill="#2AA25F" opacity="1.000000" stroke="none" 
	d="
M460.945984,190.789459 
	C460.528595,192.511688 459.858612,193.967163 459.188599,195.422638 
	C458.190308,194.396729 457.191986,193.370819 456.193665,192.344925 
	C457.693542,191.737503 459.193451,191.130096 460.945984,190.789459 
z"/>
<path fill="#F9F9F9" opacity="1.000000" stroke="none" 
	d="
M337.040894,83.159866 
	C340.890778,90.914268 340.971313,98.641373 338.697601,106.370667 
	C335.172699,118.353462 323.343018,124.564529 311.136108,120.744797 
	C311.136108,106.593689 311.082031,92.299294 311.256226,78.007675 
	C311.267975,77.041229 312.835266,75.579735 313.957428,75.222305 
	C322.821594,72.398888 331.371246,75.320435 337.040894,83.159866 
z"/>
<path fill="#F9F9F9" opacity="1.000000" stroke="none" 
	d="
M168.689209,74.497971 
	C172.204453,74.398598 175.308701,74.398598 178.905655,74.398598 
	C178.905655,89.665283 178.978790,104.097977 178.738770,118.525475 
	C178.723007,119.473091 176.403381,121.010681 175.003204,121.211212 
	C158.303894,123.602814 147.316055,111.125145 150.331619,93.374237 
	C152.101379,82.956764 157.933975,76.854317 168.689209,74.497971 
z"/>
<path fill="#F7F7F7" opacity="1.000000" stroke="none" 
	d="
M81.965012,55.035179 
	C82.285179,54.089630 82.532158,53.542130 83.115074,52.249905 
	C87.287819,66.200127 91.228439,79.374290 95.277458,92.910866 
	C87.044037,92.910866 79.300926,92.910866 71.000748,92.910866 
	C74.658699,80.323349 78.275253,67.878288 81.965012,55.035179 
z"/>
<path fill="#FBFBFB" opacity="1.000000" stroke="none" 
	d="
M249.689880,75.006714 
	C252.193085,76.634361 254.725647,77.824852 256.366974,79.768097 
	C263.359222,88.046616 263.297424,107.957947 256.502014,116.483383 
	C250.315399,124.245056 238.917770,123.746338 233.031784,115.456444 
	C226.970093,106.919090 226.836212,89.508835 232.765350,80.807335 
	C236.589874,75.194527 241.950745,73.285469 249.689880,75.006714 
z"/>
<path fill="#F7F7F7" opacity="1.000000" stroke="none" 
	d="
M520.683411,73.708153 
	C531.058228,73.116341 536.535339,78.399963 536.472412,88.905556 
	C527.103394,88.905556 517.725647,88.905556 508.334167,88.905556 
	C509.375916,80.178413 512.810547,75.851982 520.683411,73.708153 
z"/>
<path fill="#EAEAEA" opacity="1.000000" stroke="none" 
	d="
M390.306763,37.620232 
	C391.334991,40.066330 392.208527,42.164021 393.216583,44.584816 
	C383.003784,46.673920 385.829346,36.376812 381.260315,33.250633 
	C380.405365,35.241695 379.562958,37.203575 378.798950,38.982849 
	C380.714355,40.524433 382.501373,41.962685 384.288391,43.400936 
	C384.085876,43.794659 383.883362,44.188377 383.680847,44.582100 
	C379.358582,44.582100 375.036346,44.582100 370.054077,44.582100 
	C372.746857,38.159588 375.159119,31.862255 378.040253,25.787273 
	C379.288757,23.154705 384.381256,23.867863 385.712708,26.731190 
	C387.319092,30.185860 388.683136,33.753235 390.306763,37.620232 
z"/>
<path fill="#EFF8F3" opacity="1.000000" stroke="none" 
	d="
M256.539368,207.794556 
	C256.558014,210.341110 257.179321,212.850861 256.275269,214.548111 
	C255.169220,216.624542 252.927856,219.137680 250.912918,219.395599 
	C248.898376,219.653473 245.150940,217.772964 244.660828,216.098679 
	C243.724243,212.899246 243.983353,209.015717 244.916077,205.750275 
	C245.353775,204.217941 248.813736,202.249054 250.358780,202.638916 
	C252.648865,203.216782 254.454102,205.716156 256.539368,207.794556 
z"/>
<path fill="#F7FCFA" opacity="1.000000" stroke="none" 
	d="
M144.638458,204.662079 
	C149.706375,201.614456 153.279938,202.298080 155.343613,206.347733 
	C157.666061,210.905167 156.026871,217.730072 152.168381,219.568130 
	C148.475662,221.327225 143.590179,219.465027 143.169266,215.485413 
	C142.806961,212.059814 143.899490,208.480331 144.638458,204.662079 
z"/>
<path fill="#F3FAF6" opacity="1.000000" stroke="none" 
	d="
M398.999207,202.424622 
	C405.733765,204.715591 408.080658,212.555603 403.965088,217.778488 
	C401.210815,221.273880 395.723541,221.044800 393.281097,217.332458 
	C389.829102,212.085693 392.547729,204.506531 398.999207,202.424622 
z"/>
<path fill="#ECF7F1" opacity="1.000000" stroke="none" 
	d="
M289.229126,211.197159 
	C289.897064,213.430252 291.100708,216.305847 290.143890,217.736237 
	C289.128632,219.253952 285.947784,220.231033 283.918243,219.951492 
	C280.797760,219.521713 280.399994,214.982758 283.305573,213.033722 
	C284.854187,211.994919 286.960052,211.786911 289.229126,211.197159 
z"/>
<path fill="#ECF7F1" opacity="1.000000" stroke="none" 
	d="
M61.269642,220.156647 
	C60.327717,218.173462 58.841629,215.143936 59.421162,214.676758 
	C61.775967,212.778442 64.764595,211.666382 67.745544,210.149399 
	C69.562256,217.550522 67.856636,219.931763 61.269642,220.156647 
z"/>
<path fill="#ECF7F1" opacity="1.000000" stroke="none" 
	d="
M479.508118,202.356400 
	C481.237976,204.251678 482.587769,206.025055 484.647583,208.731293 
	C479.169220,208.731293 475.334900,208.731293 471.090881,208.731293 
	C472.208191,204.098419 474.412262,201.619461 479.508118,202.356400 
z"/>
<path fill="#ECF7F1" opacity="1.000000" stroke="none" 
	d="
M116.433960,209.002167 
	C112.727699,209.035278 109.459953,209.035278 106.192207,209.035278 
	C105.862450,208.565567 105.532700,208.095856 105.202950,207.626129 
	C106.999763,205.848099 108.525482,203.425461 110.687637,202.516129 
	C112.156273,201.898483 114.912163,202.933044 116.335991,204.129150 
	C117.235397,204.884689 116.741455,207.298859 116.433960,209.002167 
z"/>
<path fill="#E9F5EF" opacity="1.000000" stroke="none" 
	d="
M552.037720,209.049042 
	C549.611328,209.049026 547.641846,209.049026 545.374573,209.049026 
	C545.668213,204.645187 547.699890,202.219284 551.753418,202.148254 
	C555.644958,202.080078 557.118774,204.654861 557.417664,208.757416 
	C555.611450,208.864426 554.053040,208.956741 552.037720,209.049042 
z"/>
<path fill="#E9F5EF" opacity="1.000000" stroke="none" 
	d="
M351.442200,202.307297 
	C353.271576,204.166824 354.729126,205.918777 357.044281,208.701553 
	C351.371796,208.701553 347.394775,208.701553 343.004425,208.701553 
	C344.161713,204.165924 346.354340,201.639938 351.442200,202.307297 
z"/>
<path fill="#E9F5EF" opacity="1.000000" stroke="none" 
	d="
M424.117859,209.055420 
	C422.035126,209.055420 420.395020,209.055420 418.475006,209.055420 
	C418.878387,204.912643 420.710693,202.426147 424.548462,202.132980 
	C428.725281,201.813904 430.258484,204.589203 431.122284,209.055420 
	C428.666962,209.055420 426.613739,209.055420 424.117859,209.055420 
z"/>
</svg>